<?xml version="1.0" encoding="utf-8"?>
<svg xmlns="http://www.w3.org/2000/svg" width="1240" height="1754" viewBox="0 0 1240 1754">
<rect x="0.0" y="0.0" width="1240.0" height="1754.0" fill="#FFFFFF"/>
<rect x="0.0" y="0.0" width="1240.0" height="104.0" fill="#D4E7F2"/>
<line x1="0.0" y1="104.0" x2="1240.0" y2="104.0" stroke="#2F4A5A" stroke-width="3.0" stroke-linecap="round"/>
<text x="55.0" y="46.0" font-family="Arial" font-size="22" fill="#2F4A5A" font-weight="bold">TIDAL STREAM ATLAS · THE DOVER STRAIT</text>
<text x="55.0" y="84.0" font-family="Arial" font-size="15" fill="#6B8290">tidal streams · tenths of a knot at neaps and at springs</text>
<text x="1185.0" y="74.0" font-family="Arial" font-size="42" fill="#2F4A5A" font-weight="bold" text-anchor="end">HW DOVER   +3 h</text>
<g transform="translate(0.0,75.0)">
<clipPath id="marco"><rect x="55.0" y="55.0" width="1130.0" height="1097.4"/></clipPath>
<g clip-path="url(#marco)">
<rect x="55.0" y="55.0" width="1130.0" height="1097.4" fill="#D4E7F2"/>
<polygon points="522.0,55.0 522.4,138.5 510.5,171.1 498.5,183.2 492.6,197.4 475.5,208.5 450.4,217.7 450.9,234.7 450.2,225.3 445.3,224.3 446.4,228.9 444.8,224.6 444.7,228.9 442.2,226.2 443.5,229.6 439.6,226.5 442.5,230.6 438.0,230.0 441.0,233.5 437.9,230.1 434.3,231.9 431.7,227.6 420.0,232.2 416.7,238.1 424.7,240.9 416.3,238.8 421.9,242.4 427.0,240.3 424.1,242.2 427.5,248.7 422.3,244.5 419.7,247.9 418.2,245.1 416.4,247.1 423.1,252.5 433.0,253.8 421.9,253.4 415.7,248.1 403.4,250.1 388.9,258.4 380.5,259.8 379.8,263.9 363.7,271.3 315.9,275.2 293.6,286.6 286.6,295.9 284.7,305.3 268.9,312.2 280.3,318.5 274.1,315.9 259.1,318.5 252.9,323.7 221.7,324.2 162.8,334.1 124.6,349.0 99.4,365.6 55.0,408.5 55.0,55.0" fill="#F0C97F"/>
<polygon points="721.4,1152.4 720.2,1114.4 701.6,1008.6 711.0,992.9 715.6,974.8 703.9,959.8 712.8,960.8 714.5,955.6 718.1,955.1 713.4,969.9 718.6,975.2 720.4,972.9 715.7,970.2 723.5,957.8 721.0,955.9 729.9,948.2 735.5,952.2 736.6,958.0 741.6,956.2 740.5,954.1 746.6,963.8 748.5,962.9 744.8,955.1 737.9,951.1 742.0,922.9 740.3,913.7 747.2,906.9 754.8,877.6 750.2,849.0 754.6,843.5 754.4,833.4 749.1,813.5 763.1,816.6 753.7,810.2 751.7,814.2 746.9,811.9 740.4,786.2 734.3,777.0 736.2,772.1 729.5,743.1 721.6,726.4 726.1,693.0 752.2,693.8 796.8,679.3 829.5,647.5 853.2,612.1 873.4,588.8 909.2,562.3 961.8,537.4 1020.0,522.5 1026.4,517.0 1023.6,510.8 1027.2,518.3 1028.3,516.2 1031.9,520.2 1032.9,527.5 1036.8,522.9 1041.7,522.8 1031.5,516.6 1043.9,517.4 1058.6,512.5 1057.6,508.8 1044.7,513.0 1024.3,507.0 1044.2,508.5 1056.5,504.4 1061.1,501.7 1063.4,491.3 1048.0,490.2 1029.2,499.0 1039.7,491.8 1063.2,490.2 1080.2,507.0 1110.1,485.6 1121.3,484.7 1121.3,481.4 1126.9,478.9 1126.8,482.2 1141.8,474.8 1139.8,472.9 1143.7,475.4 1142.7,472.0 1147.4,475.0 1149.2,469.0 1151.1,474.3 1151.4,471.0 1159.7,471.2 1164.2,481.3 1162.1,470.6 1174.0,472.3 1177.5,476.1 1180.5,472.9 1185.0,472.1 1185.0,1152.4" fill="#F0C97F"/>
<polygon points="522.0,55.0 522.4,138.5 510.5,171.1 498.5,183.2 492.6,197.4 475.5,208.5 450.4,217.7 450.9,234.7 450.2,225.3 445.3,224.3 446.4,228.9 444.8,224.6 444.7,228.9 442.2,226.2 443.5,229.6 439.6,226.5 442.5,230.6 438.0,230.0 441.0,233.5 437.9,230.1 434.3,231.9 431.7,227.6 420.0,232.2 416.7,238.1 424.7,240.9 416.3,238.8 421.9,242.4 427.0,240.3 424.1,242.2 427.5,248.7 422.3,244.5 419.7,247.9 418.2,245.1 416.4,247.1 423.1,252.5 433.0,253.8 421.9,253.4 415.7,248.1 403.4,250.1 388.9,258.4 380.5,259.8 379.8,263.9 363.7,271.3 315.9,275.2 293.6,286.6 286.6,295.9 284.7,305.3 268.9,312.2 280.3,318.5 274.1,315.9 259.1,318.5 252.9,323.7 221.7,324.2 162.8,334.1 124.6,349.0 99.4,365.6 55.0,408.5 55.0,55.0" fill="none" stroke="#2F4A5A" stroke-opacity="0.44" stroke-width="2" stroke-linecap="round" stroke-linejoin="round"/>
<polygon points="721.4,1152.4 720.2,1114.4 701.6,1008.6 711.0,992.9 715.6,974.8 703.9,959.8 712.8,960.8 714.5,955.6 718.1,955.1 713.4,969.9 718.6,975.2 720.4,972.9 715.7,970.2 723.5,957.8 721.0,955.9 729.9,948.2 735.5,952.2 736.6,958.0 741.6,956.2 740.5,954.1 746.6,963.8 748.5,962.9 744.8,955.1 737.9,951.1 742.0,922.9 740.3,913.7 747.2,906.9 754.8,877.6 750.2,849.0 754.6,843.5 754.4,833.4 749.1,813.5 763.1,816.6 753.7,810.2 751.7,814.2 746.9,811.9 740.4,786.2 734.3,777.0 736.2,772.1 729.5,743.1 721.6,726.4 726.1,693.0 752.2,693.8 796.8,679.3 829.5,647.5 853.2,612.1 873.4,588.8 909.2,562.3 961.8,537.4 1020.0,522.5 1026.4,517.0 1023.6,510.8 1027.2,518.3 1028.3,516.2 1031.9,520.2 1032.9,527.5 1036.8,522.9 1041.7,522.8 1031.5,516.6 1043.9,517.4 1058.6,512.5 1057.6,508.8 1044.7,513.0 1024.3,507.0 1044.2,508.5 1056.5,504.4 1061.1,501.7 1063.4,491.3 1048.0,490.2 1029.2,499.0 1039.7,491.8 1063.2,490.2 1080.2,507.0 1110.1,485.6 1121.3,484.7 1121.3,481.4 1126.9,478.9 1126.8,482.2 1141.8,474.8 1139.8,472.9 1143.7,475.4 1142.7,472.0 1147.4,475.0 1149.2,469.0 1151.1,474.3 1151.4,471.0 1159.7,471.2 1164.2,481.3 1162.1,470.6 1174.0,472.3 1177.5,476.1 1180.5,472.9 1185.0,472.1 1185.0,1152.4" fill="none" stroke="#2F4A5A" stroke-opacity="0.44" stroke-width="2" stroke-linecap="round" stroke-linejoin="round"/>
<circle cx="428.9" cy="235.3" r="3.2" fill="#2F4A5A"/>
<text x="419.9" y="240.3" font-family="Arial" font-size="17" fill="#1A1A1A" font-weight="bold" text-anchor="end">DOVER</text>
<circle cx="271.3" cy="311.8" r="3.2" fill="#2F4A5A"/>
<text x="262.3" y="316.8" font-family="Arial" font-size="17" fill="#1A1A1A" text-anchor="end">Folkestone</text>
<circle cx="733.8" cy="952.0" r="3.2" fill="#2F4A5A"/>
<text x="742.8" y="957.0" font-family="Arial" font-size="17" fill="#1A1A1A" font-weight="bold" text-anchor="start">BOULOGNE-SUR-MER</text>
<circle cx="1032.6" cy="517.6" r="3.2" fill="#2F4A5A"/>
<text x="1041.6" y="522.6" font-family="Arial" font-size="17" fill="#1A1A1A" font-weight="bold" text-anchor="start">CALAIS</text>
<circle cx="727.7" cy="693.2" r="3.2" fill="#2F4A5A"/>
<text x="736.7" y="698.2" font-family="Arial" font-size="17" fill="#1A1A1A" text-anchor="start">Cap Gris-Nez</text>
<circle cx="870.1" cy="593.8" r="3.2" fill="#2F4A5A"/>
<text x="879.1" y="598.8" font-family="Arial" font-size="17" fill="#1A1A1A" text-anchor="start">Cap Blanc-Nez</text>
<line x1="165.6" y1="1055.5" x2="121.7" y2="1058.4" stroke="#2F4A5A" stroke-width="1.2" stroke-linecap="round"/>
<line x1="121.7" y1="1058.4" x2="130.3" y2="1062.0" stroke="#2F4A5A" stroke-width="1.2" stroke-linecap="round"/>
<line x1="121.7" y1="1058.4" x2="129.7" y2="1053.6" stroke="#2F4A5A" stroke-width="1.2" stroke-linecap="round"/>
<text x="143.7" y="1075.4" font-family="Arial" font-size="15" fill="#6B8290" font-weight="bold" text-anchor="middle">01,01</text>
<line x1="211.5" y1="1142.3" x2="173.7" y2="1119.7" stroke="#2F4A5A" stroke-width="1.3" stroke-linecap="round"/>
<line x1="173.7" y1="1119.7" x2="178.8" y2="1127.7" stroke="#2F4A5A" stroke-width="1.3" stroke-linecap="round"/>
<line x1="173.7" y1="1119.7" x2="183.1" y2="1120.3" stroke="#2F4A5A" stroke-width="1.3" stroke-linecap="round"/>
<text x="192.6" y="1159.3" font-family="Arial" font-size="15" fill="#6B8290" font-weight="bold" text-anchor="middle">02,02</text>
<line x1="326.9" y1="1066.8" x2="351.9" y2="1030.6" stroke="#2F4A5A" stroke-width="1.3" stroke-linecap="round"/>
<line x1="351.9" y1="1030.6" x2="343.5" y2="1035.1" stroke="#2F4A5A" stroke-width="1.3" stroke-linecap="round"/>
<line x1="351.9" y1="1030.6" x2="350.6" y2="1040.0" stroke="#2F4A5A" stroke-width="1.3" stroke-linecap="round"/>
<text x="339.4" y="1083.8" font-family="Arial" font-size="15" fill="#6B8290" font-weight="bold" text-anchor="middle">02,02</text>
<line x1="488.0" y1="1160.3" x2="500.7" y2="1118.2" stroke="#2F4A5A" stroke-width="1.7" stroke-linecap="round"/>
<line x1="500.7" y1="1118.2" x2="493.7" y2="1125.5" stroke="#2F4A5A" stroke-width="1.7" stroke-linecap="round"/>
<line x1="500.7" y1="1118.2" x2="502.5" y2="1128.1" stroke="#2F4A5A" stroke-width="1.7" stroke-linecap="round"/>
<text x="494.3" y="1177.3" font-family="Arial" font-size="15" fill="#6B8290" font-weight="bold" text-anchor="middle">05,06</text>
<line x1="567.5" y1="1070.7" x2="567.9" y2="1026.7" stroke="#2F4A5A" stroke-width="1.8" stroke-linecap="round"/>
<line x1="567.9" y1="1026.7" x2="563.1" y2="1036.0" stroke="#2F4A5A" stroke-width="1.8" stroke-linecap="round"/>
<line x1="567.9" y1="1026.7" x2="572.6" y2="1036.1" stroke="#2F4A5A" stroke-width="1.8" stroke-linecap="round"/>
<text x="567.7" y="1087.7" font-family="Arial" font-size="15" fill="#6B8290" font-weight="bold" text-anchor="middle">06,07</text>
<line x1="651.4" y1="1103.5" x2="647.1" y2="1059.7" stroke="#2F4A5A" stroke-width="1.7" stroke-linecap="round"/>
<line x1="647.1" y1="1059.7" x2="643.4" y2="1069.3" stroke="#2F4A5A" stroke-width="1.7" stroke-linecap="round"/>
<line x1="647.1" y1="1059.7" x2="652.6" y2="1068.4" stroke="#2F4A5A" stroke-width="1.7" stroke-linecap="round"/>
<text x="649.3" y="1120.5" font-family="Arial" font-size="15" fill="#6B8290" font-weight="bold" text-anchor="middle">06,06</text>
<line x1="129.5" y1="1013.0" x2="125.3" y2="969.2" stroke="#2F4A5A" stroke-width="1.2" stroke-linecap="round"/>
<line x1="125.3" y1="969.2" x2="121.9" y2="977.8" stroke="#2F4A5A" stroke-width="1.2" stroke-linecap="round"/>
<line x1="125.3" y1="969.2" x2="130.2" y2="977.0" stroke="#2F4A5A" stroke-width="1.2" stroke-linecap="round"/>
<text x="127.4" y="1030.0" font-family="Arial" font-size="15" fill="#6B8290" font-weight="bold" text-anchor="middle">01,01</text>
<line x1="212.1" y1="967.6" x2="238.4" y2="932.3" stroke="#2F4A5A" stroke-width="1.4" stroke-linecap="round"/>
<line x1="238.4" y1="932.3" x2="229.7" y2="936.6" stroke="#2F4A5A" stroke-width="1.4" stroke-linecap="round"/>
<line x1="238.4" y1="932.3" x2="236.8" y2="941.9" stroke="#2F4A5A" stroke-width="1.4" stroke-linecap="round"/>
<text x="225.2" y="984.6" font-family="Arial" font-size="15" fill="#6B8290" font-weight="bold" text-anchor="middle">03,03</text>
<line x1="371.4" y1="947.5" x2="405.3" y2="919.5" stroke="#2F4A5A" stroke-width="1.6" stroke-linecap="round"/>
<line x1="405.3" y1="919.5" x2="395.5" y2="921.6" stroke="#2F4A5A" stroke-width="1.6" stroke-linecap="round"/>
<line x1="405.3" y1="919.5" x2="401.3" y2="928.6" stroke="#2F4A5A" stroke-width="1.6" stroke-linecap="round"/>
<text x="388.3" y="964.5" font-family="Arial" font-size="15" fill="#6B8290" font-weight="bold" text-anchor="middle">04,05</text>
<line x1="450.8" y1="952.6" x2="472.6" y2="914.4" stroke="#2F4A5A" stroke-width="1.8" stroke-linecap="round"/>
<line x1="472.6" y1="914.4" x2="464.0" y2="920.1" stroke="#2F4A5A" stroke-width="1.8" stroke-linecap="round"/>
<line x1="472.6" y1="914.4" x2="472.1" y2="924.7" stroke="#2F4A5A" stroke-width="1.8" stroke-linecap="round"/>
<text x="461.7" y="969.6" font-family="Arial" font-size="15" fill="#6B8290" font-weight="bold" text-anchor="middle">05,07</text>
<line x1="513.2" y1="979.4" x2="524.4" y2="936.9" stroke="#2F4A5A" stroke-width="1.9" stroke-linecap="round"/>
<line x1="524.4" y1="936.9" x2="517.3" y2="944.8" stroke="#2F4A5A" stroke-width="1.9" stroke-linecap="round"/>
<line x1="524.4" y1="936.9" x2="526.7" y2="947.3" stroke="#2F4A5A" stroke-width="1.9" stroke-linecap="round"/>
<text x="518.8" y="996.4" font-family="Arial" font-size="15" fill="#6B8290" font-weight="bold" text-anchor="middle">06,08</text>
<line x1="679.0" y1="993.1" x2="670.7" y2="949.9" stroke="#2F4A5A" stroke-width="1.5" stroke-linecap="round"/>
<line x1="670.7" y1="949.9" x2="668.0" y2="959.3" stroke="#2F4A5A" stroke-width="1.5" stroke-linecap="round"/>
<line x1="670.7" y1="949.9" x2="676.7" y2="957.6" stroke="#2F4A5A" stroke-width="1.5" stroke-linecap="round"/>
<text x="674.9" y="1010.1" font-family="Arial" font-size="15" fill="#6B8290" font-weight="bold" text-anchor="middle">07,04</text>
<line x1="135.3" y1="898.6" x2="168.4" y2="869.6" stroke="#2F4A5A" stroke-width="1.4" stroke-linecap="round"/>
<line x1="168.4" y1="869.6" x2="159.0" y2="872.0" stroke="#2F4A5A" stroke-width="1.4" stroke-linecap="round"/>
<line x1="168.4" y1="869.6" x2="164.8" y2="878.6" stroke="#2F4A5A" stroke-width="1.4" stroke-linecap="round"/>
<text x="151.9" y="915.6" font-family="Arial" font-size="15" fill="#6B8290" font-weight="bold" text-anchor="middle">02,03</text>
<line x1="370.6" y1="888.9" x2="406.0" y2="862.8" stroke="#2F4A5A" stroke-width="1.7" stroke-linecap="round"/>
<line x1="406.0" y1="862.8" x2="396.0" y2="864.5" stroke="#2F4A5A" stroke-width="1.7" stroke-linecap="round"/>
<line x1="406.0" y1="862.8" x2="401.5" y2="871.9" stroke="#2F4A5A" stroke-width="1.7" stroke-linecap="round"/>
<text x="388.3" y="905.9" font-family="Arial" font-size="15" fill="#6B8290" font-weight="bold" text-anchor="middle">05,06</text>
<line x1="459.8" y1="895.4" x2="480.0" y2="856.3" stroke="#2F4A5A" stroke-width="1.9" stroke-linecap="round"/>
<line x1="480.0" y1="856.3" x2="471.3" y2="862.6" stroke="#2F4A5A" stroke-width="1.9" stroke-linecap="round"/>
<line x1="480.0" y1="856.3" x2="479.9" y2="867.0" stroke="#2F4A5A" stroke-width="1.9" stroke-linecap="round"/>
<text x="469.9" y="912.4" font-family="Arial" font-size="15" fill="#6B8290" font-weight="bold" text-anchor="middle">06,08</text>
<line x1="570.2" y1="839.5" x2="581.6" y2="797.0" stroke="#2F4A5A" stroke-width="2.3" stroke-linecap="round"/>
<line x1="581.6" y1="797.0" x2="574.0" y2="805.5" stroke="#2F4A5A" stroke-width="2.3" stroke-linecap="round"/>
<line x1="581.6" y1="797.0" x2="584.0" y2="808.2" stroke="#2F4A5A" stroke-width="2.3" stroke-linecap="round"/>
<text x="575.9" y="856.5" font-family="Arial" font-size="15" fill="#6B8290" font-weight="bold" text-anchor="middle">08,12</text>
<line x1="632.9" y1="919.3" x2="626.7" y2="875.7" stroke="#2F4A5A" stroke-width="1.7" stroke-linecap="round"/>
<line x1="626.7" y1="875.7" x2="623.4" y2="885.5" stroke="#2F4A5A" stroke-width="1.7" stroke-linecap="round"/>
<line x1="626.7" y1="875.7" x2="632.6" y2="884.1" stroke="#2F4A5A" stroke-width="1.7" stroke-linecap="round"/>
<text x="629.8" y="936.3" font-family="Arial" font-size="15" fill="#6B8290" font-weight="bold" text-anchor="middle">08,06</text>
<line x1="84.6" y1="739.9" x2="121.3" y2="715.6" stroke="#2F4A5A" stroke-width="1.6" stroke-linecap="round"/>
<line x1="121.3" y1="715.6" x2="111.2" y2="716.8" stroke="#2F4A5A" stroke-width="1.6" stroke-linecap="round"/>
<line x1="121.3" y1="715.6" x2="116.3" y2="724.4" stroke="#2F4A5A" stroke-width="1.6" stroke-linecap="round"/>
<text x="102.9" y="756.9" font-family="Arial" font-size="15" fill="#6B8290" font-weight="bold" text-anchor="middle">03,05</text>
<line x1="249.4" y1="742.2" x2="282.6" y2="713.3" stroke="#2F4A5A" stroke-width="1.8" stroke-linecap="round"/>
<line x1="282.6" y1="713.3" x2="272.6" y2="715.8" stroke="#2F4A5A" stroke-width="1.8" stroke-linecap="round"/>
<line x1="282.6" y1="713.3" x2="278.7" y2="723.0" stroke="#2F4A5A" stroke-width="1.8" stroke-linecap="round"/>
<text x="266.0" y="759.2" font-family="Arial" font-size="15" fill="#6B8290" font-weight="bold" text-anchor="middle">04,07</text>
<line x1="355.9" y1="734.5" x2="388.2" y2="704.6" stroke="#2F4A5A" stroke-width="1.8" stroke-linecap="round"/>
<line x1="388.2" y1="704.6" x2="378.1" y2="707.4" stroke="#2F4A5A" stroke-width="1.8" stroke-linecap="round"/>
<line x1="388.2" y1="704.6" x2="384.6" y2="714.4" stroke="#2F4A5A" stroke-width="1.8" stroke-linecap="round"/>
<text x="372.0" y="751.5" font-family="Arial" font-size="15" fill="#6B8290" font-weight="bold" text-anchor="middle">05,07</text>
<line x1="446.8" y1="735.7" x2="476.7" y2="703.4" stroke="#2F4A5A" stroke-width="2.2" stroke-linecap="round"/>
<line x1="476.7" y1="703.4" x2="466.2" y2="707.3" stroke="#2F4A5A" stroke-width="2.2" stroke-linecap="round"/>
<line x1="476.7" y1="703.4" x2="473.6" y2="714.2" stroke="#2F4A5A" stroke-width="2.2" stroke-linecap="round"/>
<text x="461.7" y="752.7" font-family="Arial" font-size="15" fill="#6B8290" font-weight="bold" text-anchor="middle">08,11</text>
<line x1="568.0" y1="731.8" x2="583.8" y2="690.8" stroke="#2F4A5A" stroke-width="2.7" stroke-linecap="round"/>
<line x1="583.8" y1="690.8" x2="574.8" y2="698.9" stroke="#2F4A5A" stroke-width="2.7" stroke-linecap="round"/>
<line x1="583.8" y1="690.8" x2="585.0" y2="702.8" stroke="#2F4A5A" stroke-width="2.7" stroke-linecap="round"/>
<text x="575.9" y="748.8" font-family="Arial" font-size="15" fill="#6B8290" font-weight="bold" text-anchor="middle">10,16</text>
<line x1="716.6" y1="733.2" x2="712.4" y2="689.4" stroke="#2F4A5A" stroke-width="2.0" stroke-linecap="round"/>
<line x1="712.4" y1="689.4" x2="708.4" y2="699.4" stroke="#2F4A5A" stroke-width="2.0" stroke-linecap="round"/>
<line x1="712.4" y1="689.4" x2="718.2" y2="698.5" stroke="#2F4A5A" stroke-width="2.0" stroke-linecap="round"/>
<text x="714.5" y="750.2" font-family="Arial" font-size="15" fill="#6B8290" font-weight="bold" text-anchor="middle">09,09</text>
<line x1="44.0" y1="649.6" x2="80.4" y2="624.9" stroke="#2F4A5A" stroke-width="1.7" stroke-linecap="round"/>
<line x1="80.4" y1="624.9" x2="70.2" y2="626.2" stroke="#2F4A5A" stroke-width="1.7" stroke-linecap="round"/>
<line x1="80.4" y1="624.9" x2="75.4" y2="633.9" stroke="#2F4A5A" stroke-width="1.7" stroke-linecap="round"/>
<text x="62.2" y="666.6" font-family="Arial" font-size="15" fill="#6B8290" font-weight="bold" text-anchor="middle">04,06</text>
<line x1="264.8" y1="625.9" x2="299.8" y2="599.2" stroke="#2F4A5A" stroke-width="2.0" stroke-linecap="round"/>
<line x1="299.8" y1="599.2" x2="289.3" y2="601.1" stroke="#2F4A5A" stroke-width="2.0" stroke-linecap="round"/>
<line x1="299.8" y1="599.2" x2="295.2" y2="608.9" stroke="#2F4A5A" stroke-width="2.0" stroke-linecap="round"/>
<text x="282.3" y="642.9" font-family="Arial" font-size="15" fill="#6B8290" font-weight="bold" text-anchor="middle">06,09</text>
<line x1="368.2" y1="604.9" x2="408.5" y2="587.2" stroke="#2F4A5A" stroke-width="2.2" stroke-linecap="round"/>
<line x1="408.5" y1="587.2" x2="397.4" y2="586.6" stroke="#2F4A5A" stroke-width="2.2" stroke-linecap="round"/>
<line x1="408.5" y1="587.2" x2="401.4" y2="595.9" stroke="#2F4A5A" stroke-width="2.2" stroke-linecap="round"/>
<text x="388.3" y="621.9" font-family="Arial" font-size="15" fill="#6B8290" font-weight="bold" text-anchor="middle">07,11</text>
<line x1="590.4" y1="665.1" x2="610.3" y2="625.8" stroke="#2F4A5A" stroke-width="2.9" stroke-linecap="round"/>
<line x1="610.3" y1="625.8" x2="600.2" y2="633.2" stroke="#2F4A5A" stroke-width="2.9" stroke-linecap="round"/>
<line x1="610.3" y1="625.8" x2="610.3" y2="638.4" stroke="#2F4A5A" stroke-width="2.9" stroke-linecap="round"/>
<text x="600.3" y="682.1" font-family="Arial" font-size="15" fill="#6B8290" font-weight="bold" text-anchor="middle">11,19</text>
<line x1="248.0" y1="534.7" x2="284.0" y2="509.4" stroke="#2F4A5A" stroke-width="2.1" stroke-linecap="round"/>
<line x1="284.0" y1="509.4" x2="273.2" y2="510.9" stroke="#2F4A5A" stroke-width="2.1" stroke-linecap="round"/>
<line x1="284.0" y1="509.4" x2="278.9" y2="519.0" stroke="#2F4A5A" stroke-width="2.1" stroke-linecap="round"/>
<text x="266.0" y="551.7" font-family="Arial" font-size="15" fill="#6B8290" font-weight="bold" text-anchor="middle">06,10</text>
<line x1="434.3" y1="590.3" x2="472.8" y2="568.9" stroke="#2F4A5A" stroke-width="2.5" stroke-linecap="round"/>
<line x1="472.8" y1="568.9" x2="461.1" y2="569.4" stroke="#2F4A5A" stroke-width="2.5" stroke-linecap="round"/>
<line x1="472.8" y1="568.9" x2="466.2" y2="578.7" stroke="#2F4A5A" stroke-width="2.5" stroke-linecap="round"/>
<text x="453.6" y="607.3" font-family="Arial" font-size="15" fill="#6B8290" font-weight="bold" text-anchor="middle">09,14</text>
<line x1="659.3" y1="538.6" x2="688.2" y2="505.5" stroke="#2F4A5A" stroke-width="3.2" stroke-linecap="round"/>
<line x1="688.2" y1="505.5" x2="676.0" y2="510.4" stroke="#2F4A5A" stroke-width="3.2" stroke-linecap="round"/>
<line x1="688.2" y1="505.5" x2="685.0" y2="518.2" stroke="#2F4A5A" stroke-width="3.2" stroke-linecap="round"/>
<text x="673.7" y="555.6" font-family="Arial" font-size="15" fill="#6B8290" font-weight="bold" text-anchor="middle">13,22</text>
<line x1="723.8" y1="570.9" x2="754.1" y2="539.0" stroke="#2F4A5A" stroke-width="2.8" stroke-linecap="round"/>
<line x1="754.1" y1="539.0" x2="742.5" y2="543.1" stroke="#2F4A5A" stroke-width="2.8" stroke-linecap="round"/>
<line x1="754.1" y1="539.0" x2="750.6" y2="550.8" stroke="#2F4A5A" stroke-width="2.8" stroke-linecap="round"/>
<text x="739.0" y="587.9" font-family="Arial" font-size="15" fill="#6B8290" font-weight="bold" text-anchor="middle">12,18</text>
<line x1="826.3" y1="558.3" x2="863.7" y2="535.2" stroke="#2F4A5A" stroke-width="1.9" stroke-linecap="round"/>
<line x1="863.7" y1="535.2" x2="853.1" y2="536.0" stroke="#2F4A5A" stroke-width="1.9" stroke-linecap="round"/>
<line x1="863.7" y1="535.2" x2="858.2" y2="544.3" stroke="#2F4A5A" stroke-width="1.9" stroke-linecap="round"/>
<text x="845.0" y="575.3" font-family="Arial" font-size="15" fill="#6B8290" font-weight="bold" text-anchor="middle">09,09</text>
<line x1="152.8" y1="513.1" x2="183.5" y2="481.6" stroke="#2F4A5A" stroke-width="1.9" stroke-linecap="round"/>
<line x1="183.5" y1="481.6" x2="173.6" y2="485.0" stroke="#2F4A5A" stroke-width="1.9" stroke-linecap="round"/>
<line x1="183.5" y1="481.6" x2="180.4" y2="491.7" stroke="#2F4A5A" stroke-width="1.9" stroke-linecap="round"/>
<text x="168.2" y="530.1" font-family="Arial" font-size="15" fill="#6B8290" font-weight="bold" text-anchor="middle">05,08</text>
<line x1="345.2" y1="509.0" x2="382.5" y2="485.7" stroke="#2F4A5A" stroke-width="2.5" stroke-linecap="round"/>
<line x1="382.5" y1="485.7" x2="370.8" y2="486.7" stroke="#2F4A5A" stroke-width="2.5" stroke-linecap="round"/>
<line x1="382.5" y1="485.7" x2="376.5" y2="495.7" stroke="#2F4A5A" stroke-width="2.5" stroke-linecap="round"/>
<text x="363.9" y="526.0" font-family="Arial" font-size="15" fill="#6B8290" font-weight="bold" text-anchor="middle">09,14</text>
<line x1="466.8" y1="491.3" x2="505.6" y2="470.5" stroke="#2F4A5A" stroke-width="2.4" stroke-linecap="round"/>
<line x1="505.6" y1="470.5" x2="494.0" y2="470.7" stroke="#2F4A5A" stroke-width="2.4" stroke-linecap="round"/>
<line x1="505.6" y1="470.5" x2="498.9" y2="480.1" stroke="#2F4A5A" stroke-width="2.4" stroke-linecap="round"/>
<text x="486.2" y="508.3" font-family="Arial" font-size="15" fill="#6B8290" font-weight="bold" text-anchor="middle">09,14</text>
<line x1="527.1" y1="512.2" x2="559.5" y2="482.5" stroke="#2F4A5A" stroke-width="2.7" stroke-linecap="round"/>
<line x1="559.5" y1="482.5" x2="547.8" y2="485.7" stroke="#2F4A5A" stroke-width="2.7" stroke-linecap="round"/>
<line x1="559.5" y1="482.5" x2="555.2" y2="493.8" stroke="#2F4A5A" stroke-width="2.7" stroke-linecap="round"/>
<text x="543.3" y="529.2" font-family="Arial" font-size="15" fill="#6B8290" font-weight="bold" text-anchor="middle">11,16</text>
<line x1="739.1" y1="512.2" x2="771.5" y2="482.5" stroke="#2F4A5A" stroke-width="3.0" stroke-linecap="round"/>
<line x1="771.5" y1="482.5" x2="759.3" y2="485.9" stroke="#2F4A5A" stroke-width="3.0" stroke-linecap="round"/>
<line x1="771.5" y1="482.5" x2="767.0" y2="494.4" stroke="#2F4A5A" stroke-width="3.0" stroke-linecap="round"/>
<text x="755.3" y="529.2" font-family="Arial" font-size="15" fill="#6B8290" font-weight="bold" text-anchor="middle">12,19</text>
<line x1="826.9" y1="452.3" x2="863.0" y2="427.1" stroke="#2F4A5A" stroke-width="2.9" stroke-linecap="round"/>
<line x1="863.0" y1="427.1" x2="850.6" y2="428.9" stroke="#2F4A5A" stroke-width="2.9" stroke-linecap="round"/>
<line x1="863.0" y1="427.1" x2="857.1" y2="438.2" stroke="#2F4A5A" stroke-width="2.9" stroke-linecap="round"/>
<text x="845.0" y="469.3" font-family="Arial" font-size="15" fill="#6B8290" font-weight="bold" text-anchor="middle">12,18</text>
<line x1="913.1" y1="496.0" x2="952.1" y2="475.5" stroke="#2F4A5A" stroke-width="2.3" stroke-linecap="round"/>
<line x1="952.1" y1="475.5" x2="940.8" y2="475.6" stroke="#2F4A5A" stroke-width="2.3" stroke-linecap="round"/>
<line x1="952.1" y1="475.5" x2="945.5" y2="484.7" stroke="#2F4A5A" stroke-width="2.3" stroke-linecap="round"/>
<text x="932.6" y="513.0" font-family="Arial" font-size="15" fill="#6B8290" font-weight="bold" text-anchor="middle">10,12</text>
<line x1="1020.4" y1="448.3" x2="1060.9" y2="431.2" stroke="#2F4A5A" stroke-width="2.3" stroke-linecap="round"/>
<line x1="1060.9" y1="431.2" x2="1049.5" y2="430.4" stroke="#2F4A5A" stroke-width="2.3" stroke-linecap="round"/>
<line x1="1060.9" y1="431.2" x2="1053.6" y2="439.9" stroke="#2F4A5A" stroke-width="2.3" stroke-linecap="round"/>
<text x="1040.7" y="465.3" font-family="Arial" font-size="15" fill="#6B8290" font-weight="bold" text-anchor="middle">10,13</text>
<line x1="334.6" y1="314.1" x2="376.9" y2="302.0" stroke="#2F4A5A" stroke-width="2.5" stroke-linecap="round"/>
<line x1="376.9" y1="302.0" x2="365.3" y2="299.8" stroke="#2F4A5A" stroke-width="2.5" stroke-linecap="round"/>
<line x1="376.9" y1="302.0" x2="368.2" y2="310.1" stroke="#2F4A5A" stroke-width="2.5" stroke-linecap="round"/>
<text x="355.7" y="331.1" font-family="Arial" font-size="15" fill="#6B8290" font-weight="bold" text-anchor="middle">10,15</text>
<line x1="442.4" y1="302.1" x2="481.1" y2="281.2" stroke="#2F4A5A" stroke-width="2.7" stroke-linecap="round"/>
<line x1="481.1" y1="281.2" x2="469.0" y2="281.5" stroke="#2F4A5A" stroke-width="2.7" stroke-linecap="round"/>
<line x1="481.1" y1="281.2" x2="474.2" y2="291.1" stroke="#2F4A5A" stroke-width="2.7" stroke-linecap="round"/>
<text x="461.7" y="319.1" font-family="Arial" font-size="15" fill="#6B8290" font-weight="bold" text-anchor="middle">11,16</text>
<line x1="558.7" y1="346.5" x2="593.1" y2="319.1" stroke="#2F4A5A" stroke-width="2.8" stroke-linecap="round"/>
<line x1="593.1" y1="319.1" x2="581.0" y2="321.5" stroke="#2F4A5A" stroke-width="2.8" stroke-linecap="round"/>
<line x1="593.1" y1="319.1" x2="588.0" y2="330.3" stroke="#2F4A5A" stroke-width="2.8" stroke-linecap="round"/>
<text x="575.9" y="363.5" font-family="Arial" font-size="15" fill="#6B8290" font-weight="bold" text-anchor="middle">11,17</text>
<line x1="700.3" y1="283.7" x2="728.7" y2="250.1" stroke="#2F4A5A" stroke-width="3.5" stroke-linecap="round"/>
<line x1="728.7" y1="250.1" x2="716.2" y2="255.4" stroke="#2F4A5A" stroke-width="3.5" stroke-linecap="round"/>
<line x1="728.7" y1="250.1" x2="725.6" y2="263.3" stroke="#2F4A5A" stroke-width="3.5" stroke-linecap="round"/>
<text x="714.5" y="300.7" font-family="Arial" font-size="15" fill="#6B8290" font-weight="bold" text-anchor="middle">14,24</text>
<line x1="853.0" y1="331.0" x2="885.8" y2="301.6" stroke="#2F4A5A" stroke-width="3.3" stroke-linecap="round"/>
<line x1="885.8" y1="301.6" x2="873.1" y2="305.0" stroke="#2F4A5A" stroke-width="3.3" stroke-linecap="round"/>
<line x1="885.8" y1="301.6" x2="881.1" y2="313.9" stroke="#2F4A5A" stroke-width="3.3" stroke-linecap="round"/>
<text x="869.4" y="348.0" font-family="Arial" font-size="15" fill="#6B8290" font-weight="bold" text-anchor="middle">13,22</text>
<line x1="925.1" y1="329.3" x2="960.5" y2="303.3" stroke="#2F4A5A" stroke-width="3.1" stroke-linecap="round"/>
<line x1="960.5" y1="303.3" x2="947.9" y2="305.3" stroke="#2F4A5A" stroke-width="3.1" stroke-linecap="round"/>
<line x1="960.5" y1="303.3" x2="954.8" y2="314.7" stroke="#2F4A5A" stroke-width="3.1" stroke-linecap="round"/>
<text x="942.8" y="346.3" font-family="Arial" font-size="15" fill="#6B8290" font-weight="bold" text-anchor="middle">12,20</text>
<line x1="1070.1" y1="367.7" x2="1109.1" y2="347.2" stroke="#2F4A5A" stroke-width="2.9" stroke-linecap="round"/>
<line x1="1109.1" y1="347.2" x2="1096.6" y2="347.4" stroke="#2F4A5A" stroke-width="2.9" stroke-linecap="round"/>
<line x1="1109.1" y1="347.2" x2="1101.9" y2="357.4" stroke="#2F4A5A" stroke-width="2.9" stroke-linecap="round"/>
<text x="1089.6" y="384.7" font-family="Arial" font-size="15" fill="#6B8290" font-weight="bold" text-anchor="middle">12,18</text>
<line x1="494.2" y1="207.5" x2="527.0" y2="178.2" stroke="#2F4A5A" stroke-width="2.4" stroke-linecap="round"/>
<line x1="527.0" y1="178.2" x2="515.8" y2="181.2" stroke="#2F4A5A" stroke-width="2.4" stroke-linecap="round"/>
<line x1="527.0" y1="178.2" x2="522.8" y2="189.0" stroke="#2F4A5A" stroke-width="2.4" stroke-linecap="round"/>
<text x="510.6" y="224.5" font-family="Arial" font-size="15" fill="#6B8290" font-weight="bold" text-anchor="middle">12,14</text>
<line x1="675.6" y1="201.3" x2="704.5" y2="168.0" stroke="#2F4A5A" stroke-width="3.5" stroke-linecap="round"/>
<line x1="704.5" y1="168.0" x2="691.8" y2="173.1" stroke="#2F4A5A" stroke-width="3.5" stroke-linecap="round"/>
<line x1="704.5" y1="168.0" x2="701.2" y2="181.3" stroke="#2F4A5A" stroke-width="3.5" stroke-linecap="round"/>
<text x="690.0" y="218.3" font-family="Arial" font-size="15" fill="#6B8290" font-weight="bold" text-anchor="middle">15,25</text>
<line x1="812.9" y1="249.3" x2="844.4" y2="218.7" stroke="#2F4A5A" stroke-width="3.2" stroke-linecap="round"/>
<line x1="844.4" y1="218.7" x2="831.9" y2="222.6" stroke="#2F4A5A" stroke-width="3.2" stroke-linecap="round"/>
<line x1="844.4" y1="218.7" x2="840.2" y2="231.1" stroke="#2F4A5A" stroke-width="3.2" stroke-linecap="round"/>
<text x="828.7" y="266.3" font-family="Arial" font-size="15" fill="#6B8290" font-weight="bold" text-anchor="middle">13,22</text>
<line x1="911.4" y1="175.9" x2="941.7" y2="144.0" stroke="#2F4A5A" stroke-width="3.3" stroke-linecap="round"/>
<line x1="941.7" y1="144.0" x2="929.2" y2="148.4" stroke="#2F4A5A" stroke-width="3.3" stroke-linecap="round"/>
<line x1="941.7" y1="144.0" x2="937.9" y2="156.7" stroke="#2F4A5A" stroke-width="3.3" stroke-linecap="round"/>
<text x="926.5" y="192.9" font-family="Arial" font-size="15" fill="#6B8290" font-weight="bold" text-anchor="middle">13,23</text>
<line x1="1032.0" y1="289.4" x2="1065.6" y2="260.9" stroke="#2F4A5A" stroke-width="3.1" stroke-linecap="round"/>
<line x1="1065.6" y1="260.9" x2="1053.1" y2="263.9" stroke="#2F4A5A" stroke-width="3.1" stroke-linecap="round"/>
<line x1="1065.6" y1="260.9" x2="1060.7" y2="272.8" stroke="#2F4A5A" stroke-width="3.1" stroke-linecap="round"/>
<text x="1048.8" y="306.4" font-family="Arial" font-size="15" fill="#6B8290" font-weight="bold" text-anchor="middle">13,20</text>
<line x1="550.7" y1="163.6" x2="568.4" y2="123.3" stroke="#2F4A5A" stroke-width="2.6" stroke-linecap="round"/>
<line x1="568.4" y1="123.3" x2="559.1" y2="130.9" stroke="#2F4A5A" stroke-width="2.6" stroke-linecap="round"/>
<line x1="568.4" y1="123.3" x2="569.1" y2="135.3" stroke="#2F4A5A" stroke-width="2.6" stroke-linecap="round"/>
<text x="559.6" y="180.6" font-family="Arial" font-size="15" fill="#6B8290" font-weight="bold" text-anchor="middle">13,16</text>
<line x1="824.6" y1="79.5" x2="849.0" y2="42.9" stroke="#2F4A5A" stroke-width="3.5" stroke-linecap="round"/>
<line x1="849.0" y1="42.9" x2="837.2" y2="49.5" stroke="#2F4A5A" stroke-width="3.5" stroke-linecap="round"/>
<line x1="849.0" y1="42.9" x2="847.4" y2="56.4" stroke="#2F4A5A" stroke-width="3.5" stroke-linecap="round"/>
<text x="836.8" y="96.5" font-family="Arial" font-size="15" fill="#6B8290" font-weight="bold" text-anchor="middle">14,24</text>
<line x1="1064.3" y1="91.4" x2="1098.6" y2="63.9" stroke="#2F4A5A" stroke-width="3.4" stroke-linecap="round"/>
<line x1="1098.6" y1="63.9" x2="1085.5" y2="66.6" stroke="#2F4A5A" stroke-width="3.4" stroke-linecap="round"/>
<line x1="1098.6" y1="63.9" x2="1093.1" y2="76.1" stroke="#2F4A5A" stroke-width="3.4" stroke-linecap="round"/>
<text x="1081.5" y="108.4" font-family="Arial" font-size="15" fill="#6B8290" font-weight="bold" text-anchor="middle">14,23</text>
</g>
<rect x="55.0" y="55.0" width="1130.0" height="1097.4" fill="none" stroke="#2F4A5A" stroke-width="3"/>
<line x1="55.0" y1="1067.1" x2="66.0" y2="1067.1" stroke="#2F4A5A" stroke-width="1.6" stroke-linecap="round"/>
<line x1="1174.0" y1="1067.1" x2="1185.0" y2="1067.1" stroke="#2F4A5A" stroke-width="1.6" stroke-linecap="round"/>
<rect x="68.0" y="1052.1" width="56.0" height="15.0" fill="#FFFFFF" opacity="0.82"/>
<text x="70.0" y="1063.1" font-family="Arial" font-size="12" fill="#6B8290">50° 40′ N</text>
<line x1="55.0" y1="762.2" x2="62.0" y2="762.2" stroke="#2F4A5A" stroke-width="1.6" stroke-linecap="round"/>
<line x1="1178.0" y1="762.2" x2="1185.0" y2="762.2" stroke="#2F4A5A" stroke-width="1.6" stroke-linecap="round"/>
<line x1="55.0" y1="457.4" x2="66.0" y2="457.4" stroke="#2F4A5A" stroke-width="1.6" stroke-linecap="round"/>
<line x1="1174.0" y1="457.4" x2="1185.0" y2="457.4" stroke="#2F4A5A" stroke-width="1.6" stroke-linecap="round"/>
<rect x="68.0" y="442.4" width="56.0" height="15.0" fill="#FFFFFF" opacity="0.82"/>
<text x="70.0" y="453.4" font-family="Arial" font-size="12" fill="#6B8290">51° 00′ N</text>
<line x1="55.0" y1="152.6" x2="62.0" y2="152.6" stroke="#2F4A5A" stroke-width="1.6" stroke-linecap="round"/>
<line x1="1178.0" y1="152.6" x2="1185.0" y2="152.6" stroke="#2F4A5A" stroke-width="1.6" stroke-linecap="round"/>
<line x1="55.0" y1="55.0" x2="55.0" y2="66.0" stroke="#2F4A5A" stroke-width="1.6" stroke-linecap="round"/>
<line x1="55.0" y1="1141.4" x2="55.0" y2="1152.4" stroke="#2F4A5A" stroke-width="1.6" stroke-linecap="round"/>
<rect x="57.0" y="69.0" width="64.0" height="15.0" fill="#FFFFFF" opacity="0.82"/>
<text x="59.0" y="81.0" font-family="Arial" font-size="12" fill="#6B8290">1° 00′ E</text>
<line x1="247.2" y1="55.0" x2="247.2" y2="62.0" stroke="#2F4A5A" stroke-width="1.6" stroke-linecap="round"/>
<line x1="247.2" y1="1145.4" x2="247.2" y2="1152.4" stroke="#2F4A5A" stroke-width="1.6" stroke-linecap="round"/>
<line x1="439.4" y1="55.0" x2="439.4" y2="66.0" stroke="#2F4A5A" stroke-width="1.6" stroke-linecap="round"/>
<line x1="439.4" y1="1141.4" x2="439.4" y2="1152.4" stroke="#2F4A5A" stroke-width="1.6" stroke-linecap="round"/>
<rect x="441.4" y="69.0" width="64.0" height="15.0" fill="#FFFFFF" opacity="0.82"/>
<text x="443.4" y="81.0" font-family="Arial" font-size="12" fill="#6B8290">1° 20′ E</text>
<line x1="631.5" y1="55.0" x2="631.5" y2="62.0" stroke="#2F4A5A" stroke-width="1.6" stroke-linecap="round"/>
<line x1="631.5" y1="1145.4" x2="631.5" y2="1152.4" stroke="#2F4A5A" stroke-width="1.6" stroke-linecap="round"/>
<line x1="823.7" y1="55.0" x2="823.7" y2="66.0" stroke="#2F4A5A" stroke-width="1.6" stroke-linecap="round"/>
<line x1="823.7" y1="1141.4" x2="823.7" y2="1152.4" stroke="#2F4A5A" stroke-width="1.6" stroke-linecap="round"/>
<rect x="825.7" y="69.0" width="64.0" height="15.0" fill="#FFFFFF" opacity="0.82"/>
<text x="827.7" y="81.0" font-family="Arial" font-size="12" fill="#6B8290">1° 40′ E</text>
<line x1="1015.9" y1="55.0" x2="1015.9" y2="62.0" stroke="#2F4A5A" stroke-width="1.6" stroke-linecap="round"/>
<line x1="1015.9" y1="1145.4" x2="1015.9" y2="1152.4" stroke="#2F4A5A" stroke-width="1.6" stroke-linecap="round"/>
</g>
<text x="55.0" y="1253.4" font-family="Arial" font-size="15" fill="#2F4A5A" font-weight="bold">HOW TO READ AN ARROW</text>
<line x1="71.0" y1="1291.4" x2="115.0" y2="1291.4" stroke="#2F4A5A" stroke-width="1.7" stroke-linecap="round"/>
<line x1="115.0" y1="1291.4" x2="105.9" y2="1286.8" stroke="#2F4A5A" stroke-width="1.7" stroke-linecap="round"/>
<line x1="115.0" y1="1291.4" x2="105.9" y2="1296.1" stroke="#2F4A5A" stroke-width="1.7" stroke-linecap="round"/>
<text x="93.0" y="1315.4" font-family="Arial" font-size="12" fill="#6B8290" text-anchor="middle">weak at springs</text>
<line x1="203.0" y1="1291.4" x2="247.0" y2="1291.4" stroke="#2F4A5A" stroke-width="3.1" stroke-linecap="round"/>
<line x1="247.0" y1="1291.4" x2="235.6" y2="1285.6" stroke="#2F4A5A" stroke-width="3.1" stroke-linecap="round"/>
<line x1="247.0" y1="1291.4" x2="235.6" y2="1297.3" stroke="#2F4A5A" stroke-width="3.1" stroke-linecap="round"/>
<text x="225.0" y="1315.4" font-family="Arial" font-size="12" fill="#6B8290" text-anchor="middle">moderate at springs</text>
<line x1="335.0" y1="1291.4" x2="379.0" y2="1291.4" stroke="#2F4A5A" stroke-width="4.8" stroke-linecap="round"/>
<line x1="379.0" y1="1291.4" x2="364.6" y2="1284.1" stroke="#2F4A5A" stroke-width="4.8" stroke-linecap="round"/>
<line x1="379.0" y1="1291.4" x2="364.6" y2="1298.8" stroke="#2F4A5A" stroke-width="4.8" stroke-linecap="round"/>
<text x="357.0" y="1315.4" font-family="Arial" font-size="12" fill="#6B8290" text-anchor="middle">strong at springs</text>
<text x="491.0" y="1285.4" font-family="Arial" font-size="20" fill="#6B8290" font-weight="bold">08,15</text>
<text x="571.0" y="1281.4" font-family="Arial" font-size="13" fill="#6B8290">0.8 knots at neaps (coefficient 45)</text>
<text x="571.0" y="1299.4" font-family="Arial" font-size="13" fill="#6B8290">1.5 knots at springs (coefficient 95)</text>
<text x="571.0" y="1317.4" font-family="Arial" font-size="13" fill="#6B8290">the arrow points WHERE THE WATER GOES, in degrees true</text>
<line x1="55.0" y1="1327.4" x2="1185.0" y2="1327.4" stroke="#2F4A5A" stroke-width="1.0" opacity="0.35" stroke-linecap="round"/>
<text x="55.0" y="1345.4" font-family="Arial" font-size="12" fill="#6B8290" font-weight="bold">«HOW TO USE IT»</text>
<text x="55.0" y="1362.4" font-family="Arial" font-size="12" fill="#6B8290">1 · on the almanac's tide pages, the day's HW DOVER, in UTC. 2 · the difference between the time you want and that high water, rounded to the hour: that is the page.</text>
<text x="55.0" y="1379.4" font-family="Arial" font-size="12" fill="#6B8290">3 · the THREE ARROWS around the place; each gives a direction and, between its two figures, the day's knots. 4 · share them in inverse proportion to distance:</text>
<text x="55.0" y="1396.4" font-family="Arial" font-size="12" fill="#6B8290">   the nearest weighs most. Drawn all three from the same point and the difference split, that is the stream. The checker reads this page the same way.</text>
<text x="55.0" y="1413.4" font-family="Arial" font-size="12" fill="#6B8290"></text>
<text x="55.0" y="1430.4" font-family="Arial" font-size="12" fill="#6B8290" font-weight="bold">«HOW TO INTERPOLATE BETWEEN NEAPS AND SPRINGS»</text>
<text x="55.0" y="1447.4" font-family="Arial" font-size="12" fill="#6B8290">With the COEFFICIENT of the tide pages whose Brest time, printed under it, is nearest yours:   knots = neaps + (springs − neaps) × (coefficient − 45) / 50.</text>
<text x="55.0" y="1464.4" font-family="Arial" font-size="12" fill="#6B8290">Example: arrow 08,15 and coefficient 70  →  0.8 + (1.5 − 0.8) × 25/50 = 1.15, so 1.2 knots. Coefficient 112  →  0.8 + 0.7 × 1.34 = 1.7 knots.</text>
<text x="55.0" y="1481.4" font-family="Arial" font-size="12" fill="#6B8290">Without a coefficient, the day's RANGE at Dover will do: mean neap range 3.12 m, mean spring range 6.05 m; place the day's range between the two in the same proportion.</text>
<text x="55.0" y="1498.4" font-family="Arial" font-size="12" fill="#6B8290"></text>
<text x="55.0" y="1515.4" font-family="Arial" font-size="12" fill="#6B8290" font-weight="bold">«WHAT THIS PAGE DOES NOT SAY»</text>
<text x="55.0" y="1532.4" font-family="Arial" font-size="12" fill="#6B8290">Between two arrows the stream is not the mean of the two: measured on THIS sheet, the difference exceeds 0.3 knots in 5 % of cases and reaches 1.8 at worst.</text>
<text x="55.0" y="1549.4" font-family="Arial" font-size="12" fill="#6B8290">The arrows are samples, not a field. Where the Shom grid does not reach there is no arrow, and that includes harbour mouths and, here, the harbour mouths of Dover and Boulogne.</text>
<text x="55.0" y="1566.4" font-family="Arial" font-size="12" fill="#6B8290">Each arrow IS on a real node of the Shom grid and says what the atlas says there: no cell average, no maximum moved from its place. In a race the node falls on the axis.</text>
<text x="55.0" y="1583.4" font-family="Arial" font-size="12" fill="#6B8290">The thirteen pages run on HW DOVER; the Shom grids run on their own port's, and the offset —measured over the high waters of 2024— is already applied:</text>
<text x="55.0" y="1600.4" font-family="Arial" font-size="12" fill="#6B8290">   Boulogne HW +0 min, Calais HW +22 min. It is the only step between this sheet and the data.</text>
<text x="55.0" y="1617.4" font-family="Arial" font-size="12" fill="#6B8290"></text>
<text x="55.0" y="1634.4" font-family="Arial" font-size="12" fill="#6B8290">Shom, 2026. Atlas de courants de maree 2D au format netcdf, https://dx.doi.org/10.17183/ATLASCOURANTS2D_NETCDF · Licence Ouverte 2.0.</text>
<text x="55.0" y="1651.4" font-family="Arial" font-size="12" fill="#6B8290" font-weight="bold">«A n'utiliser qu'en complement des cartes et ouvrages nautiques officiels» — to be used only alongside the official charts and nautical publications.</text>
<text x="55.0" y="1668.4" font-family="Arial" font-size="12" fill="#6B8290">Coastline from OpenStreetMap, ODbL. High waters worked out from the course's own harmonic constants.</text>
</svg>