<?xml version="1.0" encoding="utf-8"?>
<svg xmlns="http://www.w3.org/2000/svg" width="1240" height="1754" viewBox="0 0 1240 1754">
<rect x="0.0" y="0.0" width="1240.0" height="1754.0" fill="#FFFFFF"/>
<rect x="0.0" y="0.0" width="1240.0" height="104.0" fill="#D4E7F2"/>
<line x1="0.0" y1="104.0" x2="1240.0" y2="104.0" stroke="#2F4A5A" stroke-width="3.0" stroke-linecap="round"/>
<text x="55.0" y="46.0" font-family="Arial" font-size="22" fill="#2F4A5A" font-weight="bold">TIDAL STREAM ATLAS · THE DOVER STRAIT</text>
<text x="55.0" y="84.0" font-family="Arial" font-size="15" fill="#6B8290">tidal streams · tenths of a knot at neaps and at springs</text>
<text x="1185.0" y="74.0" font-family="Arial" font-size="42" fill="#2F4A5A" font-weight="bold" text-anchor="end">HW DOVER</text>
<g transform="translate(0.0,75.0)">
<clipPath id="marco"><rect x="55.0" y="55.0" width="1130.0" height="1097.4"/></clipPath>
<g clip-path="url(#marco)">
<rect x="55.0" y="55.0" width="1130.0" height="1097.4" fill="#D4E7F2"/>
<polygon points="522.0,55.0 522.4,138.5 510.5,171.1 498.5,183.2 492.6,197.4 475.5,208.5 450.4,217.7 450.9,234.7 450.2,225.3 445.3,224.3 446.4,228.9 444.8,224.6 444.7,228.9 442.2,226.2 443.5,229.6 439.6,226.5 442.5,230.6 438.0,230.0 441.0,233.5 437.9,230.1 434.3,231.9 431.7,227.6 420.0,232.2 416.7,238.1 424.7,240.9 416.3,238.8 421.9,242.4 427.0,240.3 424.1,242.2 427.5,248.7 422.3,244.5 419.7,247.9 418.2,245.1 416.4,247.1 423.1,252.5 433.0,253.8 421.9,253.4 415.7,248.1 403.4,250.1 388.9,258.4 380.5,259.8 379.8,263.9 363.7,271.3 315.9,275.2 293.6,286.6 286.6,295.9 284.7,305.3 268.9,312.2 280.3,318.5 274.1,315.9 259.1,318.5 252.9,323.7 221.7,324.2 162.8,334.1 124.6,349.0 99.4,365.6 55.0,408.5 55.0,55.0" fill="#F0C97F"/>
<polygon points="721.4,1152.4 720.2,1114.4 701.6,1008.6 711.0,992.9 715.6,974.8 703.9,959.8 712.8,960.8 714.5,955.6 718.1,955.1 713.4,969.9 718.6,975.2 720.4,972.9 715.7,970.2 723.5,957.8 721.0,955.9 729.9,948.2 735.5,952.2 736.6,958.0 741.6,956.2 740.5,954.1 746.6,963.8 748.5,962.9 744.8,955.1 737.9,951.1 742.0,922.9 740.3,913.7 747.2,906.9 754.8,877.6 750.2,849.0 754.6,843.5 754.4,833.4 749.1,813.5 763.1,816.6 753.7,810.2 751.7,814.2 746.9,811.9 740.4,786.2 734.3,777.0 736.2,772.1 729.5,743.1 721.6,726.4 726.1,693.0 752.2,693.8 796.8,679.3 829.5,647.5 853.2,612.1 873.4,588.8 909.2,562.3 961.8,537.4 1020.0,522.5 1026.4,517.0 1023.6,510.8 1027.2,518.3 1028.3,516.2 1031.9,520.2 1032.9,527.5 1036.8,522.9 1041.7,522.8 1031.5,516.6 1043.9,517.4 1058.6,512.5 1057.6,508.8 1044.7,513.0 1024.3,507.0 1044.2,508.5 1056.5,504.4 1061.1,501.7 1063.4,491.3 1048.0,490.2 1029.2,499.0 1039.7,491.8 1063.2,490.2 1080.2,507.0 1110.1,485.6 1121.3,484.7 1121.3,481.4 1126.9,478.9 1126.8,482.2 1141.8,474.8 1139.8,472.9 1143.7,475.4 1142.7,472.0 1147.4,475.0 1149.2,469.0 1151.1,474.3 1151.4,471.0 1159.7,471.2 1164.2,481.3 1162.1,470.6 1174.0,472.3 1177.5,476.1 1180.5,472.9 1185.0,472.1 1185.0,1152.4" fill="#F0C97F"/>
<polygon points="522.0,55.0 522.4,138.5 510.5,171.1 498.5,183.2 492.6,197.4 475.5,208.5 450.4,217.7 450.9,234.7 450.2,225.3 445.3,224.3 446.4,228.9 444.8,224.6 444.7,228.9 442.2,226.2 443.5,229.6 439.6,226.5 442.5,230.6 438.0,230.0 441.0,233.5 437.9,230.1 434.3,231.9 431.7,227.6 420.0,232.2 416.7,238.1 424.7,240.9 416.3,238.8 421.9,242.4 427.0,240.3 424.1,242.2 427.5,248.7 422.3,244.5 419.7,247.9 418.2,245.1 416.4,247.1 423.1,252.5 433.0,253.8 421.9,253.4 415.7,248.1 403.4,250.1 388.9,258.4 380.5,259.8 379.8,263.9 363.7,271.3 315.9,275.2 293.6,286.6 286.6,295.9 284.7,305.3 268.9,312.2 280.3,318.5 274.1,315.9 259.1,318.5 252.9,323.7 221.7,324.2 162.8,334.1 124.6,349.0 99.4,365.6 55.0,408.5 55.0,55.0" fill="none" stroke="#2F4A5A" stroke-opacity="0.44" stroke-width="2" stroke-linecap="round" stroke-linejoin="round"/>
<polygon points="721.4,1152.4 720.2,1114.4 701.6,1008.6 711.0,992.9 715.6,974.8 703.9,959.8 712.8,960.8 714.5,955.6 718.1,955.1 713.4,969.9 718.6,975.2 720.4,972.9 715.7,970.2 723.5,957.8 721.0,955.9 729.9,948.2 735.5,952.2 736.6,958.0 741.6,956.2 740.5,954.1 746.6,963.8 748.5,962.9 744.8,955.1 737.9,951.1 742.0,922.9 740.3,913.7 747.2,906.9 754.8,877.6 750.2,849.0 754.6,843.5 754.4,833.4 749.1,813.5 763.1,816.6 753.7,810.2 751.7,814.2 746.9,811.9 740.4,786.2 734.3,777.0 736.2,772.1 729.5,743.1 721.6,726.4 726.1,693.0 752.2,693.8 796.8,679.3 829.5,647.5 853.2,612.1 873.4,588.8 909.2,562.3 961.8,537.4 1020.0,522.5 1026.4,517.0 1023.6,510.8 1027.2,518.3 1028.3,516.2 1031.9,520.2 1032.9,527.5 1036.8,522.9 1041.7,522.8 1031.5,516.6 1043.9,517.4 1058.6,512.5 1057.6,508.8 1044.7,513.0 1024.3,507.0 1044.2,508.5 1056.5,504.4 1061.1,501.7 1063.4,491.3 1048.0,490.2 1029.2,499.0 1039.7,491.8 1063.2,490.2 1080.2,507.0 1110.1,485.6 1121.3,484.7 1121.3,481.4 1126.9,478.9 1126.8,482.2 1141.8,474.8 1139.8,472.9 1143.7,475.4 1142.7,472.0 1147.4,475.0 1149.2,469.0 1151.1,474.3 1151.4,471.0 1159.7,471.2 1164.2,481.3 1162.1,470.6 1174.0,472.3 1177.5,476.1 1180.5,472.9 1185.0,472.1 1185.0,1152.4" fill="none" stroke="#2F4A5A" stroke-opacity="0.44" stroke-width="2" stroke-linecap="round" stroke-linejoin="round"/>
<circle cx="428.9" cy="235.3" r="3.2" fill="#2F4A5A"/>
<text x="419.9" y="240.3" font-family="Arial" font-size="17" fill="#1A1A1A" font-weight="bold" text-anchor="end">DOVER</text>
<circle cx="271.3" cy="311.8" r="3.2" fill="#2F4A5A"/>
<text x="262.3" y="316.8" font-family="Arial" font-size="17" fill="#1A1A1A" text-anchor="end">Folkestone</text>
<circle cx="733.8" cy="952.0" r="3.2" fill="#2F4A5A"/>
<text x="742.8" y="957.0" font-family="Arial" font-size="17" fill="#1A1A1A" font-weight="bold" text-anchor="start">BOULOGNE-SUR-MER</text>
<circle cx="1032.6" cy="517.6" r="3.2" fill="#2F4A5A"/>
<text x="1041.6" y="522.6" font-family="Arial" font-size="17" fill="#1A1A1A" font-weight="bold" text-anchor="start">CALAIS</text>
<circle cx="727.7" cy="693.2" r="3.2" fill="#2F4A5A"/>
<text x="736.7" y="698.2" font-family="Arial" font-size="17" fill="#1A1A1A" text-anchor="start">Cap Gris-Nez</text>
<circle cx="870.1" cy="593.8" r="3.2" fill="#2F4A5A"/>
<text x="879.1" y="598.8" font-family="Arial" font-size="17" fill="#1A1A1A" text-anchor="start">Cap Blanc-Nez</text>
<line x1="128.3" y1="1072.6" x2="159.1" y2="1041.2" stroke="#2F4A5A" stroke-width="2.5" stroke-linecap="round"/>
<line x1="159.1" y1="1041.2" x2="147.9" y2="1045.0" stroke="#2F4A5A" stroke-width="2.5" stroke-linecap="round"/>
<line x1="159.1" y1="1041.2" x2="155.6" y2="1052.5" stroke="#2F4A5A" stroke-width="2.5" stroke-linecap="round"/>
<text x="143.7" y="1089.6" font-family="Arial" font-size="15" fill="#6B8290" font-weight="bold" text-anchor="middle">07,15</text>
<line x1="178.8" y1="1148.1" x2="206.5" y2="1113.9" stroke="#2F4A5A" stroke-width="2.6" stroke-linecap="round"/>
<line x1="206.5" y1="1113.9" x2="195.5" y2="1118.8" stroke="#2F4A5A" stroke-width="2.6" stroke-linecap="round"/>
<line x1="206.5" y1="1113.9" x2="204.0" y2="1125.7" stroke="#2F4A5A" stroke-width="2.6" stroke-linecap="round"/>
<text x="192.6" y="1165.1" font-family="Arial" font-size="15" fill="#6B8290" font-weight="bold" text-anchor="middle">08,16</text>
<line x1="325.8" y1="1066.0" x2="353.0" y2="1031.4" stroke="#2F4A5A" stroke-width="2.9" stroke-linecap="round"/>
<line x1="353.0" y1="1031.4" x2="341.6" y2="1036.7" stroke="#2F4A5A" stroke-width="2.9" stroke-linecap="round"/>
<line x1="353.0" y1="1031.4" x2="350.6" y2="1043.7" stroke="#2F4A5A" stroke-width="2.9" stroke-linecap="round"/>
<text x="339.4" y="1083.0" font-family="Arial" font-size="15" fill="#6B8290" font-weight="bold" text-anchor="middle">09,18</text>
<line x1="488.4" y1="1160.4" x2="500.3" y2="1118.0" stroke="#2F4A5A" stroke-width="3.3" stroke-linecap="round"/>
<line x1="500.3" y1="1118.0" x2="491.3" y2="1127.8" stroke="#2F4A5A" stroke-width="3.3" stroke-linecap="round"/>
<line x1="500.3" y1="1118.0" x2="502.9" y2="1131.0" stroke="#2F4A5A" stroke-width="3.3" stroke-linecap="round"/>
<text x="494.3" y="1177.4" font-family="Arial" font-size="15" fill="#6B8290" font-weight="bold" text-anchor="middle">10,22</text>
<line x1="565.3" y1="1070.6" x2="570.1" y2="1026.8" stroke="#2F4A5A" stroke-width="3.3" stroke-linecap="round"/>
<line x1="570.1" y1="1026.8" x2="562.9" y2="1037.9" stroke="#2F4A5A" stroke-width="3.3" stroke-linecap="round"/>
<line x1="570.1" y1="1026.8" x2="574.8" y2="1039.2" stroke="#2F4A5A" stroke-width="3.3" stroke-linecap="round"/>
<text x="567.7" y="1087.6" font-family="Arial" font-size="15" fill="#6B8290" font-weight="bold" text-anchor="middle">10,22</text>
<line x1="648.9" y1="1103.6" x2="649.7" y2="1059.6" stroke="#2F4A5A" stroke-width="3.4" stroke-linecap="round"/>
<line x1="649.7" y1="1059.6" x2="643.3" y2="1071.5" stroke="#2F4A5A" stroke-width="3.4" stroke-linecap="round"/>
<line x1="649.7" y1="1059.6" x2="655.6" y2="1071.7" stroke="#2F4A5A" stroke-width="3.4" stroke-linecap="round"/>
<text x="649.3" y="1120.6" font-family="Arial" font-size="15" fill="#6B8290" font-weight="bold" text-anchor="middle">12,23</text>
<line x1="112.8" y1="1007.5" x2="142.0" y2="974.7" stroke="#2F4A5A" stroke-width="2.6" stroke-linecap="round"/>
<line x1="142.0" y1="974.7" x2="130.8" y2="979.0" stroke="#2F4A5A" stroke-width="2.6" stroke-linecap="round"/>
<line x1="142.0" y1="974.7" x2="139.0" y2="986.3" stroke="#2F4A5A" stroke-width="2.6" stroke-linecap="round"/>
<text x="127.4" y="1024.5" font-family="Arial" font-size="15" fill="#6B8290" font-weight="bold" text-anchor="middle">07,16</text>
<line x1="213.5" y1="968.5" x2="237.0" y2="931.4" stroke="#2F4A5A" stroke-width="3.1" stroke-linecap="round"/>
<line x1="237.0" y1="931.4" x2="225.9" y2="937.9" stroke="#2F4A5A" stroke-width="3.1" stroke-linecap="round"/>
<line x1="237.0" y1="931.4" x2="235.8" y2="944.2" stroke="#2F4A5A" stroke-width="3.1" stroke-linecap="round"/>
<text x="225.2" y="985.5" font-family="Arial" font-size="15" fill="#6B8290" font-weight="bold" text-anchor="middle">10,20</text>
<line x1="378.0" y1="952.9" x2="398.7" y2="914.1" stroke="#2F4A5A" stroke-width="3.4" stroke-linecap="round"/>
<line x1="398.7" y1="914.1" x2="387.7" y2="921.7" stroke="#2F4A5A" stroke-width="3.4" stroke-linecap="round"/>
<line x1="398.7" y1="914.1" x2="398.4" y2="927.5" stroke="#2F4A5A" stroke-width="3.4" stroke-linecap="round"/>
<text x="388.3" y="969.9" font-family="Arial" font-size="15" fill="#6B8290" font-weight="bold" text-anchor="middle">12,23</text>
<line x1="453.3" y1="953.8" x2="470.2" y2="913.2" stroke="#2F4A5A" stroke-width="3.4" stroke-linecap="round"/>
<line x1="470.2" y1="913.2" x2="460.0" y2="921.8" stroke="#2F4A5A" stroke-width="3.4" stroke-linecap="round"/>
<line x1="470.2" y1="913.2" x2="471.2" y2="926.5" stroke="#2F4A5A" stroke-width="3.4" stroke-linecap="round"/>
<text x="461.7" y="970.8" font-family="Arial" font-size="15" fill="#6B8290" font-weight="bold" text-anchor="middle">10,23</text>
<line x1="512.1" y1="979.1" x2="525.5" y2="937.2" stroke="#2F4A5A" stroke-width="3.4" stroke-linecap="round"/>
<line x1="525.5" y1="937.2" x2="516.0" y2="946.8" stroke="#2F4A5A" stroke-width="3.4" stroke-linecap="round"/>
<line x1="525.5" y1="937.2" x2="527.7" y2="950.5" stroke="#2F4A5A" stroke-width="3.4" stroke-linecap="round"/>
<text x="518.8" y="996.1" font-family="Arial" font-size="15" fill="#6B8290" font-weight="bold" text-anchor="middle">11,24</text>
<line x1="673.2" y1="993.4" x2="676.5" y2="949.5" stroke="#2F4A5A" stroke-width="4.0" stroke-linecap="round"/>
<line x1="676.5" y1="949.5" x2="668.9" y2="962.1" stroke="#2F4A5A" stroke-width="4.0" stroke-linecap="round"/>
<line x1="676.5" y1="949.5" x2="682.2" y2="963.1" stroke="#2F4A5A" stroke-width="4.0" stroke-linecap="round"/>
<text x="674.9" y="1010.4" font-family="Arial" font-size="15" fill="#6B8290" font-weight="bold" text-anchor="middle">15,30</text>
<line x1="138.3" y1="901.5" x2="165.4" y2="866.8" stroke="#2F4A5A" stroke-width="2.8" stroke-linecap="round"/>
<line x1="165.4" y1="866.8" x2="154.2" y2="872.0" stroke="#2F4A5A" stroke-width="2.8" stroke-linecap="round"/>
<line x1="165.4" y1="866.8" x2="163.0" y2="878.9" stroke="#2F4A5A" stroke-width="2.8" stroke-linecap="round"/>
<text x="151.9" y="918.5" font-family="Arial" font-size="15" fill="#6B8290" font-weight="bold" text-anchor="middle">08,18</text>
<line x1="376.8" y1="894.6" x2="399.9" y2="857.2" stroke="#2F4A5A" stroke-width="3.4" stroke-linecap="round"/>
<line x1="399.9" y1="857.2" x2="388.3" y2="864.2" stroke="#2F4A5A" stroke-width="3.4" stroke-linecap="round"/>
<line x1="399.9" y1="857.2" x2="398.8" y2="870.6" stroke="#2F4A5A" stroke-width="3.4" stroke-linecap="round"/>
<text x="388.3" y="911.6" font-family="Arial" font-size="15" fill="#6B8290" font-weight="bold" text-anchor="middle">12,24</text>
<line x1="462.5" y1="896.6" x2="477.2" y2="855.1" stroke="#2F4A5A" stroke-width="3.5" stroke-linecap="round"/>
<line x1="477.2" y1="855.1" x2="467.4" y2="864.5" stroke="#2F4A5A" stroke-width="3.5" stroke-linecap="round"/>
<line x1="477.2" y1="855.1" x2="479.0" y2="868.6" stroke="#2F4A5A" stroke-width="3.5" stroke-linecap="round"/>
<text x="469.9" y="913.6" font-family="Arial" font-size="15" fill="#6B8290" font-weight="bold" text-anchor="middle">11,24</text>
<line x1="569.8" y1="839.4" x2="582.0" y2="797.2" stroke="#2F4A5A" stroke-width="3.5" stroke-linecap="round"/>
<line x1="582.0" y1="797.2" x2="572.6" y2="807.2" stroke="#2F4A5A" stroke-width="3.5" stroke-linecap="round"/>
<line x1="582.0" y1="797.2" x2="584.6" y2="810.6" stroke="#2F4A5A" stroke-width="3.5" stroke-linecap="round"/>
<text x="575.9" y="856.4" font-family="Arial" font-size="15" fill="#6B8290" font-weight="bold" text-anchor="middle">11,25</text>
<line x1="626.2" y1="919.2" x2="633.4" y2="875.8" stroke="#2F4A5A" stroke-width="4.0" stroke-linecap="round"/>
<line x1="633.4" y1="875.8" x2="624.8" y2="887.5" stroke="#2F4A5A" stroke-width="4.0" stroke-linecap="round"/>
<line x1="633.4" y1="875.8" x2="637.8" y2="889.7" stroke="#2F4A5A" stroke-width="4.0" stroke-linecap="round"/>
<text x="629.8" y="936.2" font-family="Arial" font-size="15" fill="#6B8290" font-weight="bold" text-anchor="middle">14,30</text>
<line x1="87.3" y1="743.3" x2="118.5" y2="712.2" stroke="#2F4A5A" stroke-width="2.7" stroke-linecap="round"/>
<line x1="118.5" y1="712.2" x2="106.9" y2="716.0" stroke="#2F4A5A" stroke-width="2.7" stroke-linecap="round"/>
<line x1="118.5" y1="712.2" x2="114.7" y2="723.8" stroke="#2F4A5A" stroke-width="2.7" stroke-linecap="round"/>
<text x="102.9" y="760.3" font-family="Arial" font-size="15" fill="#6B8290" font-weight="bold" text-anchor="middle">07,17</text>
<line x1="252.4" y1="745.0" x2="279.7" y2="710.5" stroke="#2F4A5A" stroke-width="3.0" stroke-linecap="round"/>
<line x1="279.7" y1="710.5" x2="268.0" y2="715.8" stroke="#2F4A5A" stroke-width="3.0" stroke-linecap="round"/>
<line x1="279.7" y1="710.5" x2="277.1" y2="723.1" stroke="#2F4A5A" stroke-width="3.0" stroke-linecap="round"/>
<text x="266.0" y="762.0" font-family="Arial" font-size="15" fill="#6B8290" font-weight="bold" text-anchor="middle">09,20</text>
<line x1="360.2" y1="738.1" x2="383.8" y2="701.0" stroke="#2F4A5A" stroke-width="3.4" stroke-linecap="round"/>
<line x1="383.8" y1="701.0" x2="372.2" y2="707.8" stroke="#2F4A5A" stroke-width="3.4" stroke-linecap="round"/>
<line x1="383.8" y1="701.0" x2="382.5" y2="714.4" stroke="#2F4A5A" stroke-width="3.4" stroke-linecap="round"/>
<text x="372.0" y="755.1" font-family="Arial" font-size="15" fill="#6B8290" font-weight="bold" text-anchor="middle">12,24</text>
<line x1="450.0" y1="738.1" x2="473.5" y2="700.9" stroke="#2F4A5A" stroke-width="3.9" stroke-linecap="round"/>
<line x1="473.5" y1="700.9" x2="461.0" y2="708.3" stroke="#2F4A5A" stroke-width="3.9" stroke-linecap="round"/>
<line x1="473.5" y1="700.9" x2="472.1" y2="715.3" stroke="#2F4A5A" stroke-width="3.9" stroke-linecap="round"/>
<text x="461.7" y="755.1" font-family="Arial" font-size="15" fill="#6B8290" font-weight="bold" text-anchor="middle">13,29</text>
<line x1="568.1" y1="731.9" x2="583.7" y2="690.7" stroke="#2F4A5A" stroke-width="3.9" stroke-linecap="round"/>
<line x1="583.7" y1="690.7" x2="573.0" y2="700.4" stroke="#2F4A5A" stroke-width="3.9" stroke-linecap="round"/>
<line x1="583.7" y1="690.7" x2="585.3" y2="705.0" stroke="#2F4A5A" stroke-width="3.9" stroke-linecap="round"/>
<text x="575.9" y="748.9" font-family="Arial" font-size="15" fill="#6B8290" font-weight="bold" text-anchor="middle">12,29</text>
<line x1="712.7" y1="733.2" x2="716.3" y2="689.4" stroke="#2F4A5A" stroke-width="5.2" stroke-linecap="round"/>
<line x1="716.3" y1="689.4" x2="707.4" y2="703.7" stroke="#2F4A5A" stroke-width="5.2" stroke-linecap="round"/>
<line x1="716.3" y1="689.4" x2="722.7" y2="705.0" stroke="#2F4A5A" stroke-width="5.2" stroke-linecap="round"/>
<text x="714.5" y="750.2" font-family="Arial" font-size="15" fill="#6B8290" font-weight="bold" text-anchor="middle">28,52</text>
<line x1="45.7" y1="651.8" x2="78.6" y2="622.6" stroke="#2F4A5A" stroke-width="3.0" stroke-linecap="round"/>
<line x1="78.6" y1="622.6" x2="66.3" y2="625.8" stroke="#2F4A5A" stroke-width="3.0" stroke-linecap="round"/>
<line x1="78.6" y1="622.6" x2="74.0" y2="634.5" stroke="#2F4A5A" stroke-width="3.0" stroke-linecap="round"/>
<text x="62.2" y="668.8" font-family="Arial" font-size="15" fill="#6B8290" font-weight="bold" text-anchor="middle">08,20</text>
<line x1="267.7" y1="629.0" x2="296.9" y2="596.1" stroke="#2F4A5A" stroke-width="3.2" stroke-linecap="round"/>
<line x1="296.9" y1="596.1" x2="284.8" y2="600.9" stroke="#2F4A5A" stroke-width="3.2" stroke-linecap="round"/>
<line x1="296.9" y1="596.1" x2="293.6" y2="608.7" stroke="#2F4A5A" stroke-width="3.2" stroke-linecap="round"/>
<text x="282.3" y="646.0" font-family="Arial" font-size="15" fill="#6B8290" font-weight="bold" text-anchor="middle">09,21</text>
<line x1="371.0" y1="609.6" x2="405.7" y2="582.6" stroke="#2F4A5A" stroke-width="3.5" stroke-linecap="round"/>
<line x1="405.7" y1="582.6" x2="392.2" y2="585.2" stroke="#2F4A5A" stroke-width="3.5" stroke-linecap="round"/>
<line x1="405.7" y1="582.6" x2="399.9" y2="595.0" stroke="#2F4A5A" stroke-width="3.5" stroke-linecap="round"/>
<text x="388.3" y="626.6" font-family="Arial" font-size="15" fill="#6B8290" font-weight="bold" text-anchor="middle">11,25</text>
<line x1="589.9" y1="664.8" x2="610.8" y2="626.1" stroke="#2F4A5A" stroke-width="4.1" stroke-linecap="round"/>
<line x1="610.8" y1="626.1" x2="598.7" y2="634.5" stroke="#2F4A5A" stroke-width="4.1" stroke-linecap="round"/>
<line x1="610.8" y1="626.1" x2="610.5" y2="640.9" stroke="#2F4A5A" stroke-width="4.1" stroke-linecap="round"/>
<text x="600.3" y="681.8" font-family="Arial" font-size="15" fill="#6B8290" font-weight="bold" text-anchor="middle">13,31</text>
<line x1="250.4" y1="537.6" x2="281.6" y2="506.5" stroke="#2F4A5A" stroke-width="3.2" stroke-linecap="round"/>
<line x1="281.6" y1="506.5" x2="269.2" y2="510.5" stroke="#2F4A5A" stroke-width="3.2" stroke-linecap="round"/>
<line x1="281.6" y1="506.5" x2="277.6" y2="518.9" stroke="#2F4A5A" stroke-width="3.2" stroke-linecap="round"/>
<text x="266.0" y="554.6" font-family="Arial" font-size="15" fill="#6B8290" font-weight="bold" text-anchor="middle">09,21</text>
<line x1="437.3" y1="594.4" x2="469.8" y2="564.8" stroke="#2F4A5A" stroke-width="4.1" stroke-linecap="round"/>
<line x1="469.8" y1="564.8" x2="455.6" y2="568.7" stroke="#2F4A5A" stroke-width="4.1" stroke-linecap="round"/>
<line x1="469.8" y1="564.8" x2="464.6" y2="578.7" stroke="#2F4A5A" stroke-width="4.1" stroke-linecap="round"/>
<text x="453.6" y="611.4" font-family="Arial" font-size="15" fill="#6B8290" font-weight="bold" text-anchor="middle">14,31</text>
<line x1="658.4" y1="537.8" x2="689.1" y2="506.2" stroke="#2F4A5A" stroke-width="4.3" stroke-linecap="round"/>
<line x1="689.1" y1="506.2" x2="674.7" y2="511.1" stroke="#2F4A5A" stroke-width="4.3" stroke-linecap="round"/>
<line x1="689.1" y1="506.2" x2="684.6" y2="520.7" stroke="#2F4A5A" stroke-width="4.3" stroke-linecap="round"/>
<text x="673.7" y="554.8" font-family="Arial" font-size="15" fill="#6B8290" font-weight="bold" text-anchor="middle">14,33</text>
<line x1="722.7" y1="569.8" x2="755.2" y2="540.1" stroke="#2F4A5A" stroke-width="4.7" stroke-linecap="round"/>
<line x1="755.2" y1="540.1" x2="739.9" y2="544.3" stroke="#2F4A5A" stroke-width="4.7" stroke-linecap="round"/>
<line x1="755.2" y1="540.1" x2="749.6" y2="555.0" stroke="#2F4A5A" stroke-width="4.7" stroke-linecap="round"/>
<text x="739.0" y="586.8" font-family="Arial" font-size="15" fill="#6B8290" font-weight="bold" text-anchor="middle">17,37</text>
<line x1="826.8" y1="559.2" x2="863.1" y2="534.3" stroke="#2F4A5A" stroke-width="4.7" stroke-linecap="round"/>
<line x1="863.1" y1="534.3" x2="847.2" y2="536.3" stroke="#2F4A5A" stroke-width="4.7" stroke-linecap="round"/>
<line x1="863.1" y1="534.3" x2="855.5" y2="548.3" stroke="#2F4A5A" stroke-width="4.7" stroke-linecap="round"/>
<text x="845.0" y="576.2" font-family="Arial" font-size="15" fill="#6B8290" font-weight="bold" text-anchor="middle">20,37</text>
<line x1="154.2" y1="514.3" x2="182.1" y2="480.4" stroke="#2F4A5A" stroke-width="2.6" stroke-linecap="round"/>
<line x1="182.1" y1="480.4" x2="171.2" y2="485.1" stroke="#2F4A5A" stroke-width="2.6" stroke-linecap="round"/>
<line x1="182.1" y1="480.4" x2="179.6" y2="492.0" stroke="#2F4A5A" stroke-width="2.6" stroke-linecap="round"/>
<text x="168.2" y="531.3" font-family="Arial" font-size="15" fill="#6B8290" font-weight="bold" text-anchor="middle">07,15</text>
<line x1="347.2" y1="511.7" x2="380.5" y2="483.0" stroke="#2F4A5A" stroke-width="3.9" stroke-linecap="round"/>
<line x1="380.5" y1="483.0" x2="366.6" y2="486.4" stroke="#2F4A5A" stroke-width="3.9" stroke-linecap="round"/>
<line x1="380.5" y1="483.0" x2="375.1" y2="496.2" stroke="#2F4A5A" stroke-width="3.9" stroke-linecap="round"/>
<text x="363.9" y="528.7" font-family="Arial" font-size="15" fill="#6B8290" font-weight="bold" text-anchor="middle">13,28</text>
<line x1="470.2" y1="496.0" x2="502.2" y2="465.8" stroke="#2F4A5A" stroke-width="3.8" stroke-linecap="round"/>
<line x1="502.2" y1="465.8" x2="488.5" y2="469.8" stroke="#2F4A5A" stroke-width="3.8" stroke-linecap="round"/>
<line x1="502.2" y1="465.8" x2="497.4" y2="479.2" stroke="#2F4A5A" stroke-width="3.8" stroke-linecap="round"/>
<text x="486.2" y="513.0" font-family="Arial" font-size="15" fill="#6B8290" font-weight="bold" text-anchor="middle">13,28</text>
<line x1="528.9" y1="514.0" x2="557.6" y2="480.6" stroke="#2F4A5A" stroke-width="3.8" stroke-linecap="round"/>
<line x1="557.6" y1="480.6" x2="544.5" y2="486.0" stroke="#2F4A5A" stroke-width="3.8" stroke-linecap="round"/>
<line x1="557.6" y1="480.6" x2="554.3" y2="494.4" stroke="#2F4A5A" stroke-width="3.8" stroke-linecap="round"/>
<text x="543.3" y="531.0" font-family="Arial" font-size="15" fill="#6B8290" font-weight="bold" text-anchor="middle">11,27</text>
<line x1="738.6" y1="511.7" x2="772.0" y2="483.0" stroke="#2F4A5A" stroke-width="4.4" stroke-linecap="round"/>
<line x1="772.0" y1="483.0" x2="757.0" y2="486.7" stroke="#2F4A5A" stroke-width="4.4" stroke-linecap="round"/>
<line x1="772.0" y1="483.0" x2="766.1" y2="497.3" stroke="#2F4A5A" stroke-width="4.4" stroke-linecap="round"/>
<text x="755.3" y="528.7" font-family="Arial" font-size="15" fill="#6B8290" font-weight="bold" text-anchor="middle">15,34</text>
<line x1="826.7" y1="452.0" x2="863.2" y2="427.5" stroke="#2F4A5A" stroke-width="4.3" stroke-linecap="round"/>
<line x1="863.2" y1="427.5" x2="848.2" y2="429.3" stroke="#2F4A5A" stroke-width="4.3" stroke-linecap="round"/>
<line x1="863.2" y1="427.5" x2="855.8" y2="440.7" stroke="#2F4A5A" stroke-width="4.3" stroke-linecap="round"/>
<text x="845.0" y="469.0" font-family="Arial" font-size="15" fill="#6B8290" font-weight="bold" text-anchor="middle">15,33</text>
<line x1="912.7" y1="495.2" x2="952.5" y2="476.3" stroke="#2F4A5A" stroke-width="4.6" stroke-linecap="round"/>
<line x1="952.5" y1="476.3" x2="936.7" y2="475.9" stroke="#2F4A5A" stroke-width="4.6" stroke-linecap="round"/>
<line x1="952.5" y1="476.3" x2="942.8" y2="488.9" stroke="#2F4A5A" stroke-width="4.6" stroke-linecap="round"/>
<text x="932.6" y="512.2" font-family="Arial" font-size="15" fill="#6B8290" font-weight="bold" text-anchor="middle">18,36</text>
<line x1="1020.3" y1="447.9" x2="1061.1" y2="431.5" stroke="#2F4A5A" stroke-width="4.2" stroke-linecap="round"/>
<line x1="1061.1" y1="431.5" x2="1046.1" y2="430.2" stroke="#2F4A5A" stroke-width="4.2" stroke-linecap="round"/>
<line x1="1061.1" y1="431.5" x2="1051.2" y2="442.9" stroke="#2F4A5A" stroke-width="4.2" stroke-linecap="round"/>
<text x="1040.7" y="464.9" font-family="Arial" font-size="15" fill="#6B8290" font-weight="bold" text-anchor="middle">15,32</text>
<line x1="335.6" y1="316.9" x2="375.9" y2="299.3" stroke="#2F4A5A" stroke-width="4.0" stroke-linecap="round"/>
<line x1="375.9" y1="299.3" x2="361.2" y2="298.4" stroke="#2F4A5A" stroke-width="4.0" stroke-linecap="round"/>
<line x1="375.9" y1="299.3" x2="366.6" y2="310.6" stroke="#2F4A5A" stroke-width="4.0" stroke-linecap="round"/>
<text x="355.7" y="333.9" font-family="Arial" font-size="15" fill="#6B8290" font-weight="bold" text-anchor="middle">15,30</text>
<line x1="443.1" y1="303.4" x2="480.3" y2="279.9" stroke="#2F4A5A" stroke-width="4.1" stroke-linecap="round"/>
<line x1="480.3" y1="279.9" x2="465.5" y2="281.2" stroke="#2F4A5A" stroke-width="4.1" stroke-linecap="round"/>
<line x1="480.3" y1="279.9" x2="472.7" y2="292.6" stroke="#2F4A5A" stroke-width="4.1" stroke-linecap="round"/>
<text x="461.7" y="320.4" font-family="Arial" font-size="15" fill="#6B8290" font-weight="bold" text-anchor="middle">14,31</text>
<line x1="560.3" y1="348.3" x2="591.4" y2="317.2" stroke="#2F4A5A" stroke-width="3.8" stroke-linecap="round"/>
<line x1="591.4" y1="317.2" x2="578.0" y2="321.6" stroke="#2F4A5A" stroke-width="3.8" stroke-linecap="round"/>
<line x1="591.4" y1="317.2" x2="587.1" y2="330.7" stroke="#2F4A5A" stroke-width="3.8" stroke-linecap="round"/>
<text x="575.9" y="365.3" font-family="Arial" font-size="15" fill="#6B8290" font-weight="bold" text-anchor="middle">11,27</text>
<line x1="700.5" y1="283.9" x2="728.5" y2="250.0" stroke="#2F4A5A" stroke-width="3.7" stroke-linecap="round"/>
<line x1="728.5" y1="250.0" x2="715.7" y2="255.5" stroke="#2F4A5A" stroke-width="3.7" stroke-linecap="round"/>
<line x1="728.5" y1="250.0" x2="725.5" y2="263.6" stroke="#2F4A5A" stroke-width="3.7" stroke-linecap="round"/>
<text x="714.5" y="300.9" font-family="Arial" font-size="15" fill="#6B8290" font-weight="bold" text-anchor="middle">11,26</text>
<line x1="852.9" y1="330.8" x2="886.0" y2="301.8" stroke="#2F4A5A" stroke-width="3.9" stroke-linecap="round"/>
<line x1="886.0" y1="301.8" x2="872.0" y2="305.4" stroke="#2F4A5A" stroke-width="3.9" stroke-linecap="round"/>
<line x1="886.0" y1="301.8" x2="880.6" y2="315.2" stroke="#2F4A5A" stroke-width="3.9" stroke-linecap="round"/>
<text x="869.4" y="347.8" font-family="Arial" font-size="15" fill="#6B8290" font-weight="bold" text-anchor="middle">12,29</text>
<line x1="925.0" y1="329.2" x2="960.7" y2="303.4" stroke="#2F4A5A" stroke-width="3.9" stroke-linecap="round"/>
<line x1="960.7" y1="303.4" x2="946.5" y2="305.6" stroke="#2F4A5A" stroke-width="3.9" stroke-linecap="round"/>
<line x1="960.7" y1="303.4" x2="954.1" y2="316.2" stroke="#2F4A5A" stroke-width="3.9" stroke-linecap="round"/>
<text x="942.8" y="346.2" font-family="Arial" font-size="15" fill="#6B8290" font-weight="bold" text-anchor="middle">12,28</text>
<line x1="1069.9" y1="367.2" x2="1109.3" y2="347.7" stroke="#2F4A5A" stroke-width="4.2" stroke-linecap="round"/>
<line x1="1109.3" y1="347.7" x2="1094.3" y2="347.5" stroke="#2F4A5A" stroke-width="4.2" stroke-linecap="round"/>
<line x1="1109.3" y1="347.7" x2="1100.3" y2="359.8" stroke="#2F4A5A" stroke-width="4.2" stroke-linecap="round"/>
<text x="1089.6" y="384.2" font-family="Arial" font-size="15" fill="#6B8290" font-weight="bold" text-anchor="middle">15,32</text>
<line x1="495.7" y1="209.0" x2="525.6" y2="176.7" stroke="#2F4A5A" stroke-width="5.1" stroke-linecap="round"/>
<line x1="525.6" y1="176.7" x2="510.0" y2="182.5" stroke="#2F4A5A" stroke-width="5.1" stroke-linecap="round"/>
<line x1="525.6" y1="176.7" x2="521.1" y2="192.7" stroke="#2F4A5A" stroke-width="5.1" stroke-linecap="round"/>
<text x="510.6" y="226.0" font-family="Arial" font-size="15" fill="#6B8290" font-weight="bold" text-anchor="middle">22,41</text>
<line x1="676.8" y1="202.2" x2="703.3" y2="167.1" stroke="#2F4A5A" stroke-width="3.9" stroke-linecap="round"/>
<line x1="703.3" y1="167.1" x2="690.4" y2="173.4" stroke="#2F4A5A" stroke-width="3.9" stroke-linecap="round"/>
<line x1="703.3" y1="167.1" x2="700.8" y2="181.2" stroke="#2F4A5A" stroke-width="3.9" stroke-linecap="round"/>
<text x="690.0" y="219.2" font-family="Arial" font-size="15" fill="#6B8290" font-weight="bold" text-anchor="middle">11,28</text>
<line x1="813.5" y1="249.9" x2="843.8" y2="218.1" stroke="#2F4A5A" stroke-width="3.6" stroke-linecap="round"/>
<line x1="843.8" y1="218.1" x2="830.7" y2="222.7" stroke="#2F4A5A" stroke-width="3.6" stroke-linecap="round"/>
<line x1="843.8" y1="218.1" x2="839.9" y2="231.4" stroke="#2F4A5A" stroke-width="3.6" stroke-linecap="round"/>
<text x="828.7" y="266.9" font-family="Arial" font-size="15" fill="#6B8290" font-weight="bold" text-anchor="middle">10,26</text>
<line x1="912.8" y1="177.2" x2="940.2" y2="142.7" stroke="#2F4A5A" stroke-width="3.4" stroke-linecap="round"/>
<line x1="940.2" y1="142.7" x2="927.9" y2="148.3" stroke="#2F4A5A" stroke-width="3.4" stroke-linecap="round"/>
<line x1="940.2" y1="142.7" x2="937.5" y2="155.9" stroke="#2F4A5A" stroke-width="3.4" stroke-linecap="round"/>
<text x="926.5" y="194.2" font-family="Arial" font-size="15" fill="#6B8290" font-weight="bold" text-anchor="middle">09,24</text>
<line x1="1031.7" y1="289.0" x2="1065.9" y2="261.3" stroke="#2F4A5A" stroke-width="3.7" stroke-linecap="round"/>
<line x1="1065.9" y1="261.3" x2="1052.2" y2="264.2" stroke="#2F4A5A" stroke-width="3.7" stroke-linecap="round"/>
<line x1="1065.9" y1="261.3" x2="1060.2" y2="274.2" stroke="#2F4A5A" stroke-width="3.7" stroke-linecap="round"/>
<text x="1048.8" y="306.0" font-family="Arial" font-size="15" fill="#6B8290" font-weight="bold" text-anchor="middle">11,27</text>
<line x1="552.3" y1="164.2" x2="566.9" y2="122.7" stroke="#2F4A5A" stroke-width="4.7" stroke-linecap="round"/>
<line x1="566.9" y1="122.7" x2="555.3" y2="133.8" stroke="#2F4A5A" stroke-width="4.7" stroke-linecap="round"/>
<line x1="566.9" y1="122.7" x2="569.0" y2="138.6" stroke="#2F4A5A" stroke-width="4.7" stroke-linecap="round"/>
<text x="559.6" y="181.2" font-family="Arial" font-size="15" fill="#6B8290" font-weight="bold" text-anchor="middle">19,37</text>
<line x1="827.3" y1="81.1" x2="846.3" y2="41.3" stroke="#2F4A5A" stroke-width="3.4" stroke-linecap="round"/>
<line x1="846.3" y1="41.3" x2="835.6" y2="49.5" stroke="#2F4A5A" stroke-width="3.4" stroke-linecap="round"/>
<line x1="846.3" y1="41.3" x2="846.6" y2="54.8" stroke="#2F4A5A" stroke-width="3.4" stroke-linecap="round"/>
<text x="836.8" y="98.1" font-family="Arial" font-size="15" fill="#6B8290" font-weight="bold" text-anchor="middle">10,23</text>
<line x1="1067.2" y1="94.4" x2="1095.7" y2="60.9" stroke="#2F4A5A" stroke-width="3.1" stroke-linecap="round"/>
<line x1="1095.7" y1="60.9" x2="1083.8" y2="65.9" stroke="#2F4A5A" stroke-width="3.1" stroke-linecap="round"/>
<line x1="1095.7" y1="60.9" x2="1092.7" y2="73.5" stroke="#2F4A5A" stroke-width="3.1" stroke-linecap="round"/>
<text x="1081.5" y="111.4" font-family="Arial" font-size="15" fill="#6B8290" font-weight="bold" text-anchor="middle">07,21</text>
</g>
<rect x="55.0" y="55.0" width="1130.0" height="1097.4" fill="none" stroke="#2F4A5A" stroke-width="3"/>
<line x1="55.0" y1="1067.1" x2="66.0" y2="1067.1" stroke="#2F4A5A" stroke-width="1.6" stroke-linecap="round"/>
<line x1="1174.0" y1="1067.1" x2="1185.0" y2="1067.1" stroke="#2F4A5A" stroke-width="1.6" stroke-linecap="round"/>
<rect x="68.0" y="1052.1" width="56.0" height="15.0" fill="#FFFFFF" opacity="0.82"/>
<text x="70.0" y="1063.1" font-family="Arial" font-size="12" fill="#6B8290">50° 40′ N</text>
<line x1="55.0" y1="762.2" x2="62.0" y2="762.2" stroke="#2F4A5A" stroke-width="1.6" stroke-linecap="round"/>
<line x1="1178.0" y1="762.2" x2="1185.0" y2="762.2" stroke="#2F4A5A" stroke-width="1.6" stroke-linecap="round"/>
<line x1="55.0" y1="457.4" x2="66.0" y2="457.4" stroke="#2F4A5A" stroke-width="1.6" stroke-linecap="round"/>
<line x1="1174.0" y1="457.4" x2="1185.0" y2="457.4" stroke="#2F4A5A" stroke-width="1.6" stroke-linecap="round"/>
<rect x="68.0" y="442.4" width="56.0" height="15.0" fill="#FFFFFF" opacity="0.82"/>
<text x="70.0" y="453.4" font-family="Arial" font-size="12" fill="#6B8290">51° 00′ N</text>
<line x1="55.0" y1="152.6" x2="62.0" y2="152.6" stroke="#2F4A5A" stroke-width="1.6" stroke-linecap="round"/>
<line x1="1178.0" y1="152.6" x2="1185.0" y2="152.6" stroke="#2F4A5A" stroke-width="1.6" stroke-linecap="round"/>
<line x1="55.0" y1="55.0" x2="55.0" y2="66.0" stroke="#2F4A5A" stroke-width="1.6" stroke-linecap="round"/>
<line x1="55.0" y1="1141.4" x2="55.0" y2="1152.4" stroke="#2F4A5A" stroke-width="1.6" stroke-linecap="round"/>
<rect x="57.0" y="69.0" width="64.0" height="15.0" fill="#FFFFFF" opacity="0.82"/>
<text x="59.0" y="81.0" font-family="Arial" font-size="12" fill="#6B8290">1° 00′ E</text>
<line x1="247.2" y1="55.0" x2="247.2" y2="62.0" stroke="#2F4A5A" stroke-width="1.6" stroke-linecap="round"/>
<line x1="247.2" y1="1145.4" x2="247.2" y2="1152.4" stroke="#2F4A5A" stroke-width="1.6" stroke-linecap="round"/>
<line x1="439.4" y1="55.0" x2="439.4" y2="66.0" stroke="#2F4A5A" stroke-width="1.6" stroke-linecap="round"/>
<line x1="439.4" y1="1141.4" x2="439.4" y2="1152.4" stroke="#2F4A5A" stroke-width="1.6" stroke-linecap="round"/>
<rect x="441.4" y="69.0" width="64.0" height="15.0" fill="#FFFFFF" opacity="0.82"/>
<text x="443.4" y="81.0" font-family="Arial" font-size="12" fill="#6B8290">1° 20′ E</text>
<line x1="631.5" y1="55.0" x2="631.5" y2="62.0" stroke="#2F4A5A" stroke-width="1.6" stroke-linecap="round"/>
<line x1="631.5" y1="1145.4" x2="631.5" y2="1152.4" stroke="#2F4A5A" stroke-width="1.6" stroke-linecap="round"/>
<line x1="823.7" y1="55.0" x2="823.7" y2="66.0" stroke="#2F4A5A" stroke-width="1.6" stroke-linecap="round"/>
<line x1="823.7" y1="1141.4" x2="823.7" y2="1152.4" stroke="#2F4A5A" stroke-width="1.6" stroke-linecap="round"/>
<rect x="825.7" y="69.0" width="64.0" height="15.0" fill="#FFFFFF" opacity="0.82"/>
<text x="827.7" y="81.0" font-family="Arial" font-size="12" fill="#6B8290">1° 40′ E</text>
<line x1="1015.9" y1="55.0" x2="1015.9" y2="62.0" stroke="#2F4A5A" stroke-width="1.6" stroke-linecap="round"/>
<line x1="1015.9" y1="1145.4" x2="1015.9" y2="1152.4" stroke="#2F4A5A" stroke-width="1.6" stroke-linecap="round"/>
</g>
<text x="55.0" y="1253.4" font-family="Arial" font-size="15" fill="#2F4A5A" font-weight="bold">HOW TO READ AN ARROW</text>
<line x1="71.0" y1="1291.4" x2="115.0" y2="1291.4" stroke="#2F4A5A" stroke-width="1.7" stroke-linecap="round"/>
<line x1="115.0" y1="1291.4" x2="105.9" y2="1286.8" stroke="#2F4A5A" stroke-width="1.7" stroke-linecap="round"/>
<line x1="115.0" y1="1291.4" x2="105.9" y2="1296.1" stroke="#2F4A5A" stroke-width="1.7" stroke-linecap="round"/>
<text x="93.0" y="1315.4" font-family="Arial" font-size="12" fill="#6B8290" text-anchor="middle">weak at springs</text>
<line x1="203.0" y1="1291.4" x2="247.0" y2="1291.4" stroke="#2F4A5A" stroke-width="3.1" stroke-linecap="round"/>
<line x1="247.0" y1="1291.4" x2="235.6" y2="1285.6" stroke="#2F4A5A" stroke-width="3.1" stroke-linecap="round"/>
<line x1="247.0" y1="1291.4" x2="235.6" y2="1297.3" stroke="#2F4A5A" stroke-width="3.1" stroke-linecap="round"/>
<text x="225.0" y="1315.4" font-family="Arial" font-size="12" fill="#6B8290" text-anchor="middle">moderate at springs</text>
<line x1="335.0" y1="1291.4" x2="379.0" y2="1291.4" stroke="#2F4A5A" stroke-width="4.8" stroke-linecap="round"/>
<line x1="379.0" y1="1291.4" x2="364.6" y2="1284.1" stroke="#2F4A5A" stroke-width="4.8" stroke-linecap="round"/>
<line x1="379.0" y1="1291.4" x2="364.6" y2="1298.8" stroke="#2F4A5A" stroke-width="4.8" stroke-linecap="round"/>
<text x="357.0" y="1315.4" font-family="Arial" font-size="12" fill="#6B8290" text-anchor="middle">strong at springs</text>
<text x="491.0" y="1285.4" font-family="Arial" font-size="20" fill="#6B8290" font-weight="bold">08,15</text>
<text x="571.0" y="1281.4" font-family="Arial" font-size="13" fill="#6B8290">0.8 knots at neaps (coefficient 45)</text>
<text x="571.0" y="1299.4" font-family="Arial" font-size="13" fill="#6B8290">1.5 knots at springs (coefficient 95)</text>
<text x="571.0" y="1317.4" font-family="Arial" font-size="13" fill="#6B8290">the arrow points WHERE THE WATER GOES, in degrees true</text>
<line x1="55.0" y1="1327.4" x2="1185.0" y2="1327.4" stroke="#2F4A5A" stroke-width="1.0" opacity="0.35" stroke-linecap="round"/>
<text x="55.0" y="1345.4" font-family="Arial" font-size="12" fill="#6B8290" font-weight="bold">«HOW TO USE IT»</text>
<text x="55.0" y="1362.4" font-family="Arial" font-size="12" fill="#6B8290">1 · on the almanac's tide pages, the day's HW DOVER, in UTC. 2 · the difference between the time you want and that high water, rounded to the hour: that is the page.</text>
<text x="55.0" y="1379.4" font-family="Arial" font-size="12" fill="#6B8290">3 · the THREE ARROWS around the place; each gives a direction and, between its two figures, the day's knots. 4 · share them in inverse proportion to distance:</text>
<text x="55.0" y="1396.4" font-family="Arial" font-size="12" fill="#6B8290">   the nearest weighs most. Drawn all three from the same point and the difference split, that is the stream. The checker reads this page the same way.</text>
<text x="55.0" y="1413.4" font-family="Arial" font-size="12" fill="#6B8290"></text>
<text x="55.0" y="1430.4" font-family="Arial" font-size="12" fill="#6B8290" font-weight="bold">«HOW TO INTERPOLATE BETWEEN NEAPS AND SPRINGS»</text>
<text x="55.0" y="1447.4" font-family="Arial" font-size="12" fill="#6B8290">With the COEFFICIENT of the tide pages whose Brest time, printed under it, is nearest yours:   knots = neaps + (springs − neaps) × (coefficient − 45) / 50.</text>
<text x="55.0" y="1464.4" font-family="Arial" font-size="12" fill="#6B8290">Example: arrow 08,15 and coefficient 70  →  0.8 + (1.5 − 0.8) × 25/50 = 1.15, so 1.2 knots. Coefficient 112  →  0.8 + 0.7 × 1.34 = 1.7 knots.</text>
<text x="55.0" y="1481.4" font-family="Arial" font-size="12" fill="#6B8290">Without a coefficient, the day's RANGE at Dover will do: mean neap range 3.12 m, mean spring range 6.05 m; place the day's range between the two in the same proportion.</text>
<text x="55.0" y="1498.4" font-family="Arial" font-size="12" fill="#6B8290"></text>
<text x="55.0" y="1515.4" font-family="Arial" font-size="12" fill="#6B8290" font-weight="bold">«WHAT THIS PAGE DOES NOT SAY»</text>
<text x="55.0" y="1532.4" font-family="Arial" font-size="12" fill="#6B8290">Between two arrows the stream is not the mean of the two: measured on THIS sheet, the difference exceeds 0.3 knots in 5 % of cases and reaches 1.8 at worst.</text>
<text x="55.0" y="1549.4" font-family="Arial" font-size="12" fill="#6B8290">The arrows are samples, not a field. Where the Shom grid does not reach there is no arrow, and that includes harbour mouths and, here, the harbour mouths of Dover and Boulogne.</text>
<text x="55.0" y="1566.4" font-family="Arial" font-size="12" fill="#6B8290">Each arrow IS on a real node of the Shom grid and says what the atlas says there: no cell average, no maximum moved from its place. In a race the node falls on the axis.</text>
<text x="55.0" y="1583.4" font-family="Arial" font-size="12" fill="#6B8290">The thirteen pages run on HW DOVER; the Shom grids run on their own port's, and the offset —measured over the high waters of 2024— is already applied:</text>
<text x="55.0" y="1600.4" font-family="Arial" font-size="12" fill="#6B8290">   Boulogne HW +0 min, Calais HW +22 min. It is the only step between this sheet and the data.</text>
<text x="55.0" y="1617.4" font-family="Arial" font-size="12" fill="#6B8290"></text>
<text x="55.0" y="1634.4" font-family="Arial" font-size="12" fill="#6B8290">Shom, 2026. Atlas de courants de maree 2D au format netcdf, https://dx.doi.org/10.17183/ATLASCOURANTS2D_NETCDF · Licence Ouverte 2.0.</text>
<text x="55.0" y="1651.4" font-family="Arial" font-size="12" fill="#6B8290" font-weight="bold">«A n'utiliser qu'en complement des cartes et ouvrages nautiques officiels» — to be used only alongside the official charts and nautical publications.</text>
<text x="55.0" y="1668.4" font-family="Arial" font-size="12" fill="#6B8290">Coastline from OpenStreetMap, ODbL. High waters worked out from the course's own harmonic constants.</text>
<text x="60.0" y="1748.0" font-family="Arial" font-size="10" fill="#6B8290" data-fuente-pie="1">Tide gauge data: Generated using E.U. Copernicus Marine Service Information; Global Ocean - Delayed Mode Sea level product (INSITU_GLO_PHY_SSH_DISCRETE_MY_013_053), https://doi.org/10.17882/93670.</text>
</svg>