<?xml version="1.0" encoding="utf-8"?>
<svg xmlns="http://www.w3.org/2000/svg" width="1240" height="1754" viewBox="0 0 1240 1754">
<rect x="0.0" y="0.0" width="1240.0" height="1754.0" fill="#FFFFFF"/>
<rect x="0.0" y="0.0" width="1240.0" height="104.0" fill="#D4E7F2"/>
<line x1="0.0" y1="104.0" x2="1240.0" y2="104.0" stroke="#2F4A5A" stroke-width="3.0" stroke-linecap="round"/>
<text x="55.0" y="46.0" font-family="Arial" font-size="22" fill="#2F4A5A" font-weight="bold">TIDAL STREAM ATLAS · THE DOVER STRAIT</text>
<text x="55.0" y="84.0" font-family="Arial" font-size="15" fill="#6B8290">tidal streams · tenths of a knot at neaps and at springs</text>
<text x="1185.0" y="74.0" font-family="Arial" font-size="42" fill="#2F4A5A" font-weight="bold" text-anchor="end">HW DOVER   +5 h</text>
<g transform="translate(0.0,75.0)">
<clipPath id="marco"><rect x="55.0" y="55.0" width="1130.0" height="1097.4"/></clipPath>
<g clip-path="url(#marco)">
<rect x="55.0" y="55.0" width="1130.0" height="1097.4" fill="#D4E7F2"/>
<polygon points="522.0,55.0 522.4,138.5 510.5,171.1 498.5,183.2 492.6,197.4 475.5,208.5 450.4,217.7 450.9,234.7 450.2,225.3 445.3,224.3 446.4,228.9 444.8,224.6 444.7,228.9 442.2,226.2 443.5,229.6 439.6,226.5 442.5,230.6 438.0,230.0 441.0,233.5 437.9,230.1 434.3,231.9 431.7,227.6 420.0,232.2 416.7,238.1 424.7,240.9 416.3,238.8 421.9,242.4 427.0,240.3 424.1,242.2 427.5,248.7 422.3,244.5 419.7,247.9 418.2,245.1 416.4,247.1 423.1,252.5 433.0,253.8 421.9,253.4 415.7,248.1 403.4,250.1 388.9,258.4 380.5,259.8 379.8,263.9 363.7,271.3 315.9,275.2 293.6,286.6 286.6,295.9 284.7,305.3 268.9,312.2 280.3,318.5 274.1,315.9 259.1,318.5 252.9,323.7 221.7,324.2 162.8,334.1 124.6,349.0 99.4,365.6 55.0,408.5 55.0,55.0" fill="#F0C97F"/>
<polygon points="721.4,1152.4 720.2,1114.4 701.6,1008.6 711.0,992.9 715.6,974.8 703.9,959.8 712.8,960.8 714.5,955.6 718.1,955.1 713.4,969.9 718.6,975.2 720.4,972.9 715.7,970.2 723.5,957.8 721.0,955.9 729.9,948.2 735.5,952.2 736.6,958.0 741.6,956.2 740.5,954.1 746.6,963.8 748.5,962.9 744.8,955.1 737.9,951.1 742.0,922.9 740.3,913.7 747.2,906.9 754.8,877.6 750.2,849.0 754.6,843.5 754.4,833.4 749.1,813.5 763.1,816.6 753.7,810.2 751.7,814.2 746.9,811.9 740.4,786.2 734.3,777.0 736.2,772.1 729.5,743.1 721.6,726.4 726.1,693.0 752.2,693.8 796.8,679.3 829.5,647.5 853.2,612.1 873.4,588.8 909.2,562.3 961.8,537.4 1020.0,522.5 1026.4,517.0 1023.6,510.8 1027.2,518.3 1028.3,516.2 1031.9,520.2 1032.9,527.5 1036.8,522.9 1041.7,522.8 1031.5,516.6 1043.9,517.4 1058.6,512.5 1057.6,508.8 1044.7,513.0 1024.3,507.0 1044.2,508.5 1056.5,504.4 1061.1,501.7 1063.4,491.3 1048.0,490.2 1029.2,499.0 1039.7,491.8 1063.2,490.2 1080.2,507.0 1110.1,485.6 1121.3,484.7 1121.3,481.4 1126.9,478.9 1126.8,482.2 1141.8,474.8 1139.8,472.9 1143.7,475.4 1142.7,472.0 1147.4,475.0 1149.2,469.0 1151.1,474.3 1151.4,471.0 1159.7,471.2 1164.2,481.3 1162.1,470.6 1174.0,472.3 1177.5,476.1 1180.5,472.9 1185.0,472.1 1185.0,1152.4" fill="#F0C97F"/>
<polygon points="522.0,55.0 522.4,138.5 510.5,171.1 498.5,183.2 492.6,197.4 475.5,208.5 450.4,217.7 450.9,234.7 450.2,225.3 445.3,224.3 446.4,228.9 444.8,224.6 444.7,228.9 442.2,226.2 443.5,229.6 439.6,226.5 442.5,230.6 438.0,230.0 441.0,233.5 437.9,230.1 434.3,231.9 431.7,227.6 420.0,232.2 416.7,238.1 424.7,240.9 416.3,238.8 421.9,242.4 427.0,240.3 424.1,242.2 427.5,248.7 422.3,244.5 419.7,247.9 418.2,245.1 416.4,247.1 423.1,252.5 433.0,253.8 421.9,253.4 415.7,248.1 403.4,250.1 388.9,258.4 380.5,259.8 379.8,263.9 363.7,271.3 315.9,275.2 293.6,286.6 286.6,295.9 284.7,305.3 268.9,312.2 280.3,318.5 274.1,315.9 259.1,318.5 252.9,323.7 221.7,324.2 162.8,334.1 124.6,349.0 99.4,365.6 55.0,408.5 55.0,55.0" fill="none" stroke="#2F4A5A" stroke-opacity="0.44" stroke-width="2" stroke-linecap="round" stroke-linejoin="round"/>
<polygon points="721.4,1152.4 720.2,1114.4 701.6,1008.6 711.0,992.9 715.6,974.8 703.9,959.8 712.8,960.8 714.5,955.6 718.1,955.1 713.4,969.9 718.6,975.2 720.4,972.9 715.7,970.2 723.5,957.8 721.0,955.9 729.9,948.2 735.5,952.2 736.6,958.0 741.6,956.2 740.5,954.1 746.6,963.8 748.5,962.9 744.8,955.1 737.9,951.1 742.0,922.9 740.3,913.7 747.2,906.9 754.8,877.6 750.2,849.0 754.6,843.5 754.4,833.4 749.1,813.5 763.1,816.6 753.7,810.2 751.7,814.2 746.9,811.9 740.4,786.2 734.3,777.0 736.2,772.1 729.5,743.1 721.6,726.4 726.1,693.0 752.2,693.8 796.8,679.3 829.5,647.5 853.2,612.1 873.4,588.8 909.2,562.3 961.8,537.4 1020.0,522.5 1026.4,517.0 1023.6,510.8 1027.2,518.3 1028.3,516.2 1031.9,520.2 1032.9,527.5 1036.8,522.9 1041.7,522.8 1031.5,516.6 1043.9,517.4 1058.6,512.5 1057.6,508.8 1044.7,513.0 1024.3,507.0 1044.2,508.5 1056.5,504.4 1061.1,501.7 1063.4,491.3 1048.0,490.2 1029.2,499.0 1039.7,491.8 1063.2,490.2 1080.2,507.0 1110.1,485.6 1121.3,484.7 1121.3,481.4 1126.9,478.9 1126.8,482.2 1141.8,474.8 1139.8,472.9 1143.7,475.4 1142.7,472.0 1147.4,475.0 1149.2,469.0 1151.1,474.3 1151.4,471.0 1159.7,471.2 1164.2,481.3 1162.1,470.6 1174.0,472.3 1177.5,476.1 1180.5,472.9 1185.0,472.1 1185.0,1152.4" fill="none" stroke="#2F4A5A" stroke-opacity="0.44" stroke-width="2" stroke-linecap="round" stroke-linejoin="round"/>
<circle cx="428.9" cy="235.3" r="3.2" fill="#2F4A5A"/>
<text x="419.9" y="240.3" font-family="Arial" font-size="17" fill="#1A1A1A" font-weight="bold" text-anchor="end">DOVER</text>
<circle cx="271.3" cy="311.8" r="3.2" fill="#2F4A5A"/>
<text x="262.3" y="316.8" font-family="Arial" font-size="17" fill="#1A1A1A" text-anchor="end">Folkestone</text>
<circle cx="733.8" cy="952.0" r="3.2" fill="#2F4A5A"/>
<text x="742.8" y="957.0" font-family="Arial" font-size="17" fill="#1A1A1A" font-weight="bold" text-anchor="start">BOULOGNE-SUR-MER</text>
<circle cx="1032.6" cy="517.6" r="3.2" fill="#2F4A5A"/>
<text x="1041.6" y="522.6" font-family="Arial" font-size="17" fill="#1A1A1A" font-weight="bold" text-anchor="start">CALAIS</text>
<circle cx="727.7" cy="693.2" r="3.2" fill="#2F4A5A"/>
<text x="736.7" y="698.2" font-family="Arial" font-size="17" fill="#1A1A1A" text-anchor="start">Cap Gris-Nez</text>
<circle cx="870.1" cy="593.8" r="3.2" fill="#2F4A5A"/>
<text x="879.1" y="598.8" font-family="Arial" font-size="17" fill="#1A1A1A" text-anchor="start">Cap Blanc-Nez</text>
<line x1="161.3" y1="1043.8" x2="126.1" y2="1070.1" stroke="#2F4A5A" stroke-width="2.4" stroke-linecap="round"/>
<line x1="126.1" y1="1070.1" x2="137.5" y2="1068.1" stroke="#2F4A5A" stroke-width="2.4" stroke-linecap="round"/>
<line x1="126.1" y1="1070.1" x2="131.2" y2="1059.7" stroke="#2F4A5A" stroke-width="2.4" stroke-linecap="round"/>
<text x="143.7" y="1087.1" font-family="Arial" font-size="15" fill="#6B8290" font-weight="bold" text-anchor="middle">07,14</text>
<line x1="210.4" y1="1118.1" x2="174.8" y2="1143.9" stroke="#2F4A5A" stroke-width="2.5" stroke-linecap="round"/>
<line x1="174.8" y1="1143.9" x2="186.3" y2="1142.1" stroke="#2F4A5A" stroke-width="2.5" stroke-linecap="round"/>
<line x1="174.8" y1="1143.9" x2="180.1" y2="1133.5" stroke="#2F4A5A" stroke-width="2.5" stroke-linecap="round"/>
<text x="192.6" y="1160.9" font-family="Arial" font-size="15" fill="#6B8290" font-weight="bold" text-anchor="middle">06,14</text>
<line x1="354.5" y1="1032.7" x2="324.3" y2="1064.7" stroke="#2F4A5A" stroke-width="2.4" stroke-linecap="round"/>
<line x1="324.3" y1="1064.7" x2="335.1" y2="1060.8" stroke="#2F4A5A" stroke-width="2.4" stroke-linecap="round"/>
<line x1="324.3" y1="1064.7" x2="327.5" y2="1053.7" stroke="#2F4A5A" stroke-width="2.4" stroke-linecap="round"/>
<text x="339.4" y="1081.7" font-family="Arial" font-size="15" fill="#6B8290" font-weight="bold" text-anchor="middle">06,13</text>
<line x1="501.4" y1="1118.4" x2="487.3" y2="1160.1" stroke="#2F4A5A" stroke-width="2.1" stroke-linecap="round"/>
<line x1="487.3" y1="1160.1" x2="495.1" y2="1152.4" stroke="#2F4A5A" stroke-width="2.1" stroke-linecap="round"/>
<line x1="487.3" y1="1160.1" x2="485.7" y2="1149.2" stroke="#2F4A5A" stroke-width="2.1" stroke-linecap="round"/>
<text x="494.3" y="1177.1" font-family="Arial" font-size="15" fill="#6B8290" font-weight="bold" text-anchor="middle">04,10</text>
<line x1="572.2" y1="1027.2" x2="563.3" y2="1070.2" stroke="#2F4A5A" stroke-width="2.0" stroke-linecap="round"/>
<line x1="563.3" y1="1070.2" x2="570.0" y2="1061.9" stroke="#2F4A5A" stroke-width="2.0" stroke-linecap="round"/>
<line x1="563.3" y1="1070.2" x2="560.4" y2="1059.9" stroke="#2F4A5A" stroke-width="2.0" stroke-linecap="round"/>
<text x="567.7" y="1087.2" font-family="Arial" font-size="15" fill="#6B8290" font-weight="bold" text-anchor="middle">03,09</text>
<line x1="651.6" y1="1059.7" x2="646.9" y2="1103.5" stroke="#2F4A5A" stroke-width="2.1" stroke-linecap="round"/>
<line x1="646.9" y1="1103.5" x2="652.9" y2="1094.3" stroke="#2F4A5A" stroke-width="2.1" stroke-linecap="round"/>
<line x1="646.9" y1="1103.5" x2="643.0" y2="1093.2" stroke="#2F4A5A" stroke-width="2.1" stroke-linecap="round"/>
<text x="649.3" y="1120.5" font-family="Arial" font-size="15" fill="#6B8290" font-weight="bold" text-anchor="middle">04,10</text>
<line x1="143.7" y1="976.4" x2="111.0" y2="1005.8" stroke="#2F4A5A" stroke-width="2.3" stroke-linecap="round"/>
<line x1="111.0" y1="1005.8" x2="122.1" y2="1002.9" stroke="#2F4A5A" stroke-width="2.3" stroke-linecap="round"/>
<line x1="111.0" y1="1005.8" x2="115.1" y2="995.1" stroke="#2F4A5A" stroke-width="2.3" stroke-linecap="round"/>
<text x="127.4" y="1022.8" font-family="Arial" font-size="15" fill="#6B8290" font-weight="bold" text-anchor="middle">06,13</text>
<line x1="238.3" y1="932.2" x2="212.2" y2="967.7" stroke="#2F4A5A" stroke-width="2.4" stroke-linecap="round"/>
<line x1="212.2" y1="967.7" x2="222.5" y2="962.5" stroke="#2F4A5A" stroke-width="2.4" stroke-linecap="round"/>
<line x1="212.2" y1="967.7" x2="214.1" y2="956.3" stroke="#2F4A5A" stroke-width="2.4" stroke-linecap="round"/>
<text x="225.2" y="984.7" font-family="Arial" font-size="15" fill="#6B8290" font-weight="bold" text-anchor="middle">05,13</text>
<line x1="398.9" y1="914.2" x2="377.8" y2="952.8" stroke="#2F4A5A" stroke-width="2.5" stroke-linecap="round"/>
<line x1="377.8" y1="952.8" x2="387.4" y2="946.2" stroke="#2F4A5A" stroke-width="2.5" stroke-linecap="round"/>
<line x1="377.8" y1="952.8" x2="378.1" y2="941.2" stroke="#2F4A5A" stroke-width="2.5" stroke-linecap="round"/>
<text x="388.3" y="969.8" font-family="Arial" font-size="15" fill="#6B8290" font-weight="bold" text-anchor="middle">06,14</text>
<line x1="468.6" y1="912.6" x2="454.8" y2="954.4" stroke="#2F4A5A" stroke-width="2.1" stroke-linecap="round"/>
<line x1="454.8" y1="954.4" x2="462.7" y2="946.6" stroke="#2F4A5A" stroke-width="2.1" stroke-linecap="round"/>
<line x1="454.8" y1="954.4" x2="453.1" y2="943.4" stroke="#2F4A5A" stroke-width="2.1" stroke-linecap="round"/>
<text x="461.7" y="971.4" font-family="Arial" font-size="15" fill="#6B8290" font-weight="bold" text-anchor="middle">05,11</text>
<line x1="526.2" y1="937.5" x2="511.4" y2="978.9" stroke="#2F4A5A" stroke-width="2.1" stroke-linecap="round"/>
<line x1="511.4" y1="978.9" x2="519.4" y2="971.4" stroke="#2F4A5A" stroke-width="2.1" stroke-linecap="round"/>
<line x1="511.4" y1="978.9" x2="510.0" y2="968.0" stroke="#2F4A5A" stroke-width="2.1" stroke-linecap="round"/>
<text x="518.8" y="995.9" font-family="Arial" font-size="15" fill="#6B8290" font-weight="bold" text-anchor="middle">04,10</text>
<line x1="678.3" y1="949.7" x2="671.4" y2="993.2" stroke="#2F4A5A" stroke-width="2.8" stroke-linecap="round"/>
<line x1="671.4" y1="993.2" x2="678.7" y2="983.2" stroke="#2F4A5A" stroke-width="2.8" stroke-linecap="round"/>
<line x1="671.4" y1="993.2" x2="667.6" y2="981.4" stroke="#2F4A5A" stroke-width="2.8" stroke-linecap="round"/>
<text x="674.9" y="1010.2" font-family="Arial" font-size="15" fill="#6B8290" font-weight="bold" text-anchor="middle">06,18</text>
<line x1="166.3" y1="867.6" x2="137.4" y2="900.7" stroke="#2F4A5A" stroke-width="2.2" stroke-linecap="round"/>
<line x1="137.4" y1="900.7" x2="147.8" y2="896.5" stroke="#2F4A5A" stroke-width="2.2" stroke-linecap="round"/>
<line x1="137.4" y1="900.7" x2="140.1" y2="889.8" stroke="#2F4A5A" stroke-width="2.2" stroke-linecap="round"/>
<text x="151.9" y="917.7" font-family="Arial" font-size="15" fill="#6B8290" font-weight="bold" text-anchor="middle">05,12</text>
<line x1="399.1" y1="856.7" x2="377.5" y2="895.0" stroke="#2F4A5A" stroke-width="2.4" stroke-linecap="round"/>
<line x1="377.5" y1="895.0" x2="387.2" y2="888.6" stroke="#2F4A5A" stroke-width="2.4" stroke-linecap="round"/>
<line x1="377.5" y1="895.0" x2="378.0" y2="883.4" stroke="#2F4A5A" stroke-width="2.4" stroke-linecap="round"/>
<text x="388.3" y="912.0" font-family="Arial" font-size="15" fill="#6B8290" font-weight="bold" text-anchor="middle">06,14</text>
<line x1="476.3" y1="854.9" x2="463.4" y2="896.9" stroke="#2F4A5A" stroke-width="2.1" stroke-linecap="round"/>
<line x1="463.4" y1="896.9" x2="471.0" y2="889.0" stroke="#2F4A5A" stroke-width="2.1" stroke-linecap="round"/>
<line x1="463.4" y1="896.9" x2="461.5" y2="886.1" stroke="#2F4A5A" stroke-width="2.1" stroke-linecap="round"/>
<text x="469.9" y="913.9" font-family="Arial" font-size="15" fill="#6B8290" font-weight="bold" text-anchor="middle">04,10</text>
<line x1="582.3" y1="797.3" x2="569.4" y2="839.3" stroke="#2F4A5A" stroke-width="1.8" stroke-linecap="round"/>
<line x1="569.4" y1="839.3" x2="576.7" y2="831.8" stroke="#2F4A5A" stroke-width="1.8" stroke-linecap="round"/>
<line x1="569.4" y1="839.3" x2="567.6" y2="829.0" stroke="#2F4A5A" stroke-width="1.8" stroke-linecap="round"/>
<text x="575.9" y="856.3" font-family="Arial" font-size="15" fill="#6B8290" font-weight="bold" text-anchor="middle">03,08</text>
<line x1="637.4" y1="876.9" x2="622.2" y2="918.2" stroke="#2F4A5A" stroke-width="2.7" stroke-linecap="round"/>
<line x1="622.2" y1="918.2" x2="631.1" y2="909.9" stroke="#2F4A5A" stroke-width="2.7" stroke-linecap="round"/>
<line x1="622.2" y1="918.2" x2="620.8" y2="906.2" stroke="#2F4A5A" stroke-width="2.7" stroke-linecap="round"/>
<text x="629.8" y="935.2" font-family="Arial" font-size="15" fill="#6B8290" font-weight="bold" text-anchor="middle">05,16</text>
<line x1="116.9" y1="710.8" x2="88.9" y2="744.7" stroke="#2F4A5A" stroke-width="2.0" stroke-linecap="round"/>
<line x1="88.9" y1="744.7" x2="98.8" y2="740.5" stroke="#2F4A5A" stroke-width="2.0" stroke-linecap="round"/>
<line x1="88.9" y1="744.7" x2="91.2" y2="734.3" stroke="#2F4A5A" stroke-width="2.0" stroke-linecap="round"/>
<text x="102.9" y="761.7" font-family="Arial" font-size="15" fill="#6B8290" font-weight="bold" text-anchor="middle">04,09</text>
<line x1="279.4" y1="710.3" x2="252.7" y2="745.2" stroke="#2F4A5A" stroke-width="2.0" stroke-linecap="round"/>
<line x1="252.7" y1="745.2" x2="262.3" y2="740.6" stroke="#2F4A5A" stroke-width="2.0" stroke-linecap="round"/>
<line x1="252.7" y1="745.2" x2="254.6" y2="734.7" stroke="#2F4A5A" stroke-width="2.0" stroke-linecap="round"/>
<text x="266.0" y="762.2" font-family="Arial" font-size="15" fill="#6B8290" font-weight="bold" text-anchor="middle">04,09</text>
<line x1="383.4" y1="700.7" x2="360.7" y2="738.4" stroke="#2F4A5A" stroke-width="2.1" stroke-linecap="round"/>
<line x1="360.7" y1="738.4" x2="370.1" y2="732.5" stroke="#2F4A5A" stroke-width="2.1" stroke-linecap="round"/>
<line x1="360.7" y1="738.4" x2="361.5" y2="727.3" stroke="#2F4A5A" stroke-width="2.1" stroke-linecap="round"/>
<text x="372.0" y="755.4" font-family="Arial" font-size="15" fill="#6B8290" font-weight="bold" text-anchor="middle">04,11</text>
<line x1="471.6" y1="699.9" x2="451.9" y2="739.2" stroke="#2F4A5A" stroke-width="2.3" stroke-linecap="round"/>
<line x1="451.9" y1="739.2" x2="461.0" y2="732.4" stroke="#2F4A5A" stroke-width="2.3" stroke-linecap="round"/>
<line x1="451.9" y1="739.2" x2="451.8" y2="727.8" stroke="#2F4A5A" stroke-width="2.3" stroke-linecap="round"/>
<text x="461.7" y="756.2" font-family="Arial" font-size="15" fill="#6B8290" font-weight="bold" text-anchor="middle">05,13</text>
<line x1="583.2" y1="690.5" x2="568.6" y2="732.1" stroke="#2F4A5A" stroke-width="1.8" stroke-linecap="round"/>
<line x1="568.6" y1="732.1" x2="576.1" y2="724.9" stroke="#2F4A5A" stroke-width="1.8" stroke-linecap="round"/>
<line x1="568.6" y1="732.1" x2="567.2" y2="721.8" stroke="#2F4A5A" stroke-width="1.8" stroke-linecap="round"/>
<text x="575.9" y="749.1" font-family="Arial" font-size="15" fill="#6B8290" font-weight="bold" text-anchor="middle">02,07</text>
<line x1="721.9" y1="690.6" x2="707.1" y2="732.0" stroke="#2F4A5A" stroke-width="2.6" stroke-linecap="round"/>
<line x1="707.1" y1="732.0" x2="715.7" y2="723.9" stroke="#2F4A5A" stroke-width="2.6" stroke-linecap="round"/>
<line x1="707.1" y1="732.0" x2="705.6" y2="720.2" stroke="#2F4A5A" stroke-width="2.6" stroke-linecap="round"/>
<text x="714.5" y="749.0" font-family="Arial" font-size="15" fill="#6B8290" font-weight="bold" text-anchor="middle">13,15</text>
<line x1="77.7" y1="621.7" x2="46.6" y2="652.8" stroke="#2F4A5A" stroke-width="2.1" stroke-linecap="round"/>
<line x1="46.6" y1="652.8" x2="57.1" y2="649.4" stroke="#2F4A5A" stroke-width="2.1" stroke-linecap="round"/>
<line x1="46.6" y1="652.8" x2="50.0" y2="642.3" stroke="#2F4A5A" stroke-width="2.1" stroke-linecap="round"/>
<text x="62.2" y="669.8" font-family="Arial" font-size="15" fill="#6B8290" font-weight="bold" text-anchor="middle">04,11</text>
<line x1="295.1" y1="594.6" x2="269.5" y2="630.5" stroke="#2F4A5A" stroke-width="1.8" stroke-linecap="round"/>
<line x1="269.5" y1="630.5" x2="278.9" y2="625.6" stroke="#2F4A5A" stroke-width="1.8" stroke-linecap="round"/>
<line x1="269.5" y1="630.5" x2="271.1" y2="620.1" stroke="#2F4A5A" stroke-width="1.8" stroke-linecap="round"/>
<text x="282.3" y="647.5" font-family="Arial" font-size="15" fill="#6B8290" font-weight="bold" text-anchor="middle">03,08</text>
<line x1="404.0" y1="580.7" x2="372.6" y2="611.5" stroke="#2F4A5A" stroke-width="1.9" stroke-linecap="round"/>
<line x1="372.6" y1="611.5" x2="382.8" y2="608.3" stroke="#2F4A5A" stroke-width="1.9" stroke-linecap="round"/>
<line x1="372.6" y1="611.5" x2="376.0" y2="601.4" stroke="#2F4A5A" stroke-width="1.9" stroke-linecap="round"/>
<text x="388.3" y="628.5" font-family="Arial" font-size="15" fill="#6B8290" font-weight="bold" text-anchor="middle">03,08</text>
<line x1="611.1" y1="626.3" x2="589.6" y2="664.7" stroke="#2F4A5A" stroke-width="1.7" stroke-linecap="round"/>
<line x1="589.6" y1="664.7" x2="598.1" y2="659.0" stroke="#2F4A5A" stroke-width="1.7" stroke-linecap="round"/>
<line x1="589.6" y1="664.7" x2="590.0" y2="654.5" stroke="#2F4A5A" stroke-width="1.7" stroke-linecap="round"/>
<text x="600.3" y="681.7" font-family="Arial" font-size="15" fill="#6B8290" font-weight="bold" text-anchor="middle">02,06</text>
<line x1="279.1" y1="504.4" x2="252.9" y2="539.7" stroke="#2F4A5A" stroke-width="1.8" stroke-linecap="round"/>
<line x1="252.9" y1="539.7" x2="262.2" y2="535.1" stroke="#2F4A5A" stroke-width="1.8" stroke-linecap="round"/>
<line x1="252.9" y1="539.7" x2="254.6" y2="529.4" stroke="#2F4A5A" stroke-width="1.8" stroke-linecap="round"/>
<text x="266.0" y="556.7" font-family="Arial" font-size="15" fill="#6B8290" font-weight="bold" text-anchor="middle">03,07</text>
<line x1="466.4" y1="561.8" x2="440.7" y2="597.5" stroke="#2F4A5A" stroke-width="2.3" stroke-linecap="round"/>
<line x1="440.7" y1="597.5" x2="450.7" y2="592.3" stroke="#2F4A5A" stroke-width="2.3" stroke-linecap="round"/>
<line x1="440.7" y1="597.5" x2="442.4" y2="586.3" stroke="#2F4A5A" stroke-width="2.3" stroke-linecap="round"/>
<text x="453.6" y="614.5" font-family="Arial" font-size="15" fill="#6B8290" font-weight="bold" text-anchor="middle">05,12</text>
<line x1="691.1" y1="508.5" x2="656.4" y2="535.5" stroke="#2F4A5A" stroke-width="1.5" stroke-linecap="round"/>
<line x1="656.4" y1="535.5" x2="666.1" y2="533.7" stroke="#2F4A5A" stroke-width="1.5" stroke-linecap="round"/>
<line x1="656.4" y1="535.5" x2="660.6" y2="526.6" stroke="#2F4A5A" stroke-width="1.5" stroke-linecap="round"/>
<text x="673.7" y="552.5" font-family="Arial" font-size="15" fill="#6B8290" font-weight="bold" text-anchor="middle">01,04</text>
<line x1="755.6" y1="540.6" x2="722.3" y2="569.3" stroke="#2F4A5A" stroke-width="2.1" stroke-linecap="round"/>
<line x1="722.3" y1="569.3" x2="733.0" y2="566.7" stroke="#2F4A5A" stroke-width="2.1" stroke-linecap="round"/>
<line x1="722.3" y1="569.3" x2="726.5" y2="559.1" stroke="#2F4A5A" stroke-width="2.1" stroke-linecap="round"/>
<text x="739.0" y="586.3" font-family="Arial" font-size="15" fill="#6B8290" font-weight="bold" text-anchor="middle">03,11</text>
<line x1="864.5" y1="536.6" x2="825.4" y2="556.8" stroke="#2F4A5A" stroke-width="3.2" stroke-linecap="round"/>
<line x1="825.4" y1="556.8" x2="838.6" y2="556.7" stroke="#2F4A5A" stroke-width="3.2" stroke-linecap="round"/>
<line x1="825.4" y1="556.8" x2="833.1" y2="546.1" stroke="#2F4A5A" stroke-width="3.2" stroke-linecap="round"/>
<text x="845.0" y="573.8" font-family="Arial" font-size="15" fill="#6B8290" font-weight="bold" text-anchor="middle">08,22</text>
<line x1="180.0" y1="478.8" x2="156.3" y2="515.9" stroke="#2F4A5A" stroke-width="1.6" stroke-linecap="round"/>
<line x1="156.3" y1="515.9" x2="165.0" y2="510.8" stroke="#2F4A5A" stroke-width="1.6" stroke-linecap="round"/>
<line x1="156.3" y1="515.9" x2="157.3" y2="505.9" stroke="#2F4A5A" stroke-width="1.6" stroke-linecap="round"/>
<text x="168.2" y="532.9" font-family="Arial" font-size="15" fill="#6B8290" font-weight="bold" text-anchor="middle">02,05</text>
<line x1="378.5" y1="481.0" x2="349.2" y2="513.7" stroke="#2F4A5A" stroke-width="1.9" stroke-linecap="round"/>
<line x1="349.2" y1="513.7" x2="359.1" y2="509.9" stroke="#2F4A5A" stroke-width="1.9" stroke-linecap="round"/>
<line x1="349.2" y1="513.7" x2="351.9" y2="503.5" stroke="#2F4A5A" stroke-width="1.9" stroke-linecap="round"/>
<text x="363.9" y="530.7" font-family="Arial" font-size="15" fill="#6B8290" font-weight="bold" text-anchor="middle">03,08</text>
<line x1="496.4" y1="461.4" x2="475.9" y2="500.4" stroke="#2F4A5A" stroke-width="2.1" stroke-linecap="round"/>
<line x1="475.9" y1="500.4" x2="484.9" y2="494.0" stroke="#2F4A5A" stroke-width="2.1" stroke-linecap="round"/>
<line x1="475.9" y1="500.4" x2="476.1" y2="489.4" stroke="#2F4A5A" stroke-width="2.1" stroke-linecap="round"/>
<text x="486.2" y="517.4" font-family="Arial" font-size="15" fill="#6B8290" font-weight="bold" text-anchor="middle">04,10</text>
<line x1="552.0" y1="477.1" x2="534.5" y2="517.5" stroke="#2F4A5A" stroke-width="1.8" stroke-linecap="round"/>
<line x1="534.5" y1="517.5" x2="542.6" y2="510.9" stroke="#2F4A5A" stroke-width="1.8" stroke-linecap="round"/>
<line x1="534.5" y1="517.5" x2="533.9" y2="507.1" stroke="#2F4A5A" stroke-width="1.8" stroke-linecap="round"/>
<text x="543.3" y="534.5" font-family="Arial" font-size="15" fill="#6B8290" font-weight="bold" text-anchor="middle">02,07</text>
<line x1="772.6" y1="483.8" x2="738.0" y2="510.9" stroke="#2F4A5A" stroke-width="1.8" stroke-linecap="round"/>
<line x1="738.0" y1="510.9" x2="748.2" y2="508.9" stroke="#2F4A5A" stroke-width="1.8" stroke-linecap="round"/>
<line x1="738.0" y1="510.9" x2="742.3" y2="501.5" stroke="#2F4A5A" stroke-width="1.8" stroke-linecap="round"/>
<text x="755.3" y="527.9" font-family="Arial" font-size="15" fill="#6B8290" font-weight="bold" text-anchor="middle">02,07</text>
<line x1="863.6" y1="428.1" x2="826.3" y2="451.4" stroke="#2F4A5A" stroke-width="1.8" stroke-linecap="round"/>
<line x1="826.3" y1="451.4" x2="836.7" y2="450.5" stroke="#2F4A5A" stroke-width="1.8" stroke-linecap="round"/>
<line x1="826.3" y1="451.4" x2="831.7" y2="442.4" stroke="#2F4A5A" stroke-width="1.8" stroke-linecap="round"/>
<text x="845.0" y="468.4" font-family="Arial" font-size="15" fill="#6B8290" font-weight="bold" text-anchor="middle">02,07</text>
<line x1="953.0" y1="477.6" x2="912.2" y2="493.9" stroke="#2F4A5A" stroke-width="2.7" stroke-linecap="round"/>
<line x1="912.2" y1="493.9" x2="924.3" y2="495.0" stroke="#2F4A5A" stroke-width="2.7" stroke-linecap="round"/>
<line x1="912.2" y1="493.9" x2="920.2" y2="484.8" stroke="#2F4A5A" stroke-width="2.7" stroke-linecap="round"/>
<text x="932.6" y="510.9" font-family="Arial" font-size="15" fill="#6B8290" font-weight="bold" text-anchor="middle">06,17</text>
<line x1="1061.3" y1="432.0" x2="1020.1" y2="447.4" stroke="#2F4A5A" stroke-width="2.3" stroke-linecap="round"/>
<line x1="1020.1" y1="447.4" x2="1031.4" y2="448.7" stroke="#2F4A5A" stroke-width="2.3" stroke-linecap="round"/>
<line x1="1020.1" y1="447.4" x2="1027.8" y2="439.1" stroke="#2F4A5A" stroke-width="2.3" stroke-linecap="round"/>
<text x="1040.7" y="464.4" font-family="Arial" font-size="15" fill="#6B8290" font-weight="bold" text-anchor="middle">04,12</text>
<line x1="373.6" y1="295.2" x2="337.9" y2="320.9" stroke="#2F4A5A" stroke-width="2.3" stroke-linecap="round"/>
<line x1="337.9" y1="320.9" x2="349.1" y2="319.2" stroke="#2F4A5A" stroke-width="2.3" stroke-linecap="round"/>
<line x1="337.9" y1="320.9" x2="343.1" y2="310.8" stroke="#2F4A5A" stroke-width="2.3" stroke-linecap="round"/>
<text x="355.7" y="337.9" font-family="Arial" font-size="15" fill="#6B8290" font-weight="bold" text-anchor="middle">04,12</text>
<line x1="479.0" y1="277.9" x2="444.5" y2="305.3" stroke="#2F4A5A" stroke-width="1.8" stroke-linecap="round"/>
<line x1="444.5" y1="305.3" x2="454.8" y2="303.2" stroke="#2F4A5A" stroke-width="1.8" stroke-linecap="round"/>
<line x1="444.5" y1="305.3" x2="448.8" y2="295.8" stroke="#2F4A5A" stroke-width="1.8" stroke-linecap="round"/>
<text x="461.7" y="322.3" font-family="Arial" font-size="15" fill="#6B8290" font-weight="bold" text-anchor="middle">02,07</text>
<line x1="586.0" y1="313.2" x2="565.8" y2="352.3" stroke="#2F4A5A" stroke-width="1.7" stroke-linecap="round"/>
<line x1="565.8" y1="352.3" x2="574.0" y2="346.4" stroke="#2F4A5A" stroke-width="1.7" stroke-linecap="round"/>
<line x1="565.8" y1="352.3" x2="565.8" y2="342.1" stroke="#2F4A5A" stroke-width="1.7" stroke-linecap="round"/>
<text x="575.9" y="369.3" font-family="Arial" font-size="15" fill="#6B8290" font-weight="bold" text-anchor="middle">01,06</text>
<line x1="706.5" y1="287.4" x2="722.5" y2="246.4" stroke="#2F4A5A" stroke-width="1.2" stroke-linecap="round"/>
<line x1="722.5" y1="246.4" x2="715.6" y2="252.6" stroke="#2F4A5A" stroke-width="1.2" stroke-linecap="round"/>
<line x1="722.5" y1="246.4" x2="723.4" y2="255.6" stroke="#2F4A5A" stroke-width="1.2" stroke-linecap="round"/>
<text x="714.5" y="304.4" font-family="Arial" font-size="15" fill="#6B8290" font-weight="bold" text-anchor="middle">02,01</text>
<line x1="885.4" y1="301.2" x2="853.5" y2="331.4" stroke="#2F4A5A" stroke-width="1.3" stroke-linecap="round"/>
<line x1="853.5" y1="331.4" x2="862.5" y2="328.8" stroke="#2F4A5A" stroke-width="1.3" stroke-linecap="round"/>
<line x1="853.5" y1="331.4" x2="856.6" y2="322.5" stroke="#2F4A5A" stroke-width="1.3" stroke-linecap="round"/>
<text x="869.4" y="348.4" font-family="Arial" font-size="15" fill="#6B8290" font-weight="bold" text-anchor="middle">01,02</text>
<line x1="959.7" y1="302.2" x2="926.0" y2="330.5" stroke="#2F4A5A" stroke-width="1.4" stroke-linecap="round"/>
<line x1="926.0" y1="330.5" x2="935.4" y2="328.3" stroke="#2F4A5A" stroke-width="1.4" stroke-linecap="round"/>
<line x1="926.0" y1="330.5" x2="929.7" y2="321.6" stroke="#2F4A5A" stroke-width="1.4" stroke-linecap="round"/>
<text x="942.8" y="347.5" font-family="Arial" font-size="15" fill="#6B8290" font-weight="bold" text-anchor="middle">01,03</text>
<line x1="1108.5" y1="346.1" x2="1070.8" y2="368.8" stroke="#2F4A5A" stroke-width="1.9" stroke-linecap="round"/>
<line x1="1070.8" y1="368.8" x2="1081.3" y2="368.0" stroke="#2F4A5A" stroke-width="1.9" stroke-linecap="round"/>
<line x1="1070.8" y1="368.8" x2="1076.4" y2="359.8" stroke="#2F4A5A" stroke-width="1.9" stroke-linecap="round"/>
<text x="1089.6" y="385.8" font-family="Arial" font-size="15" fill="#6B8290" font-weight="bold" text-anchor="middle">02,08</text>
<line x1="524.8" y1="176.0" x2="496.5" y2="209.7" stroke="#2F4A5A" stroke-width="2.8" stroke-linecap="round"/>
<line x1="496.5" y1="209.7" x2="507.8" y2="204.9" stroke="#2F4A5A" stroke-width="2.8" stroke-linecap="round"/>
<line x1="496.5" y1="209.7" x2="499.3" y2="197.7" stroke="#2F4A5A" stroke-width="2.8" stroke-linecap="round"/>
<text x="510.6" y="226.7" font-family="Arial" font-size="15" fill="#6B8290" font-weight="bold" text-anchor="middle">07,18</text>
<line x1="681.5" y1="164.4" x2="698.6" y2="204.9" stroke="#2F4A5A" stroke-width="1.3" stroke-linecap="round"/>
<line x1="698.6" y1="204.9" x2="699.3" y2="195.5" stroke="#2F4A5A" stroke-width="1.3" stroke-linecap="round"/>
<line x1="698.6" y1="204.9" x2="691.4" y2="198.9" stroke="#2F4A5A" stroke-width="1.3" stroke-linecap="round"/>
<text x="690.0" y="221.9" font-family="Arial" font-size="15" fill="#6B8290" font-weight="bold" text-anchor="middle">03,02</text>
<line x1="816.8" y1="215.5" x2="840.6" y2="252.5" stroke="#2F4A5A" stroke-width="1.2" stroke-linecap="round"/>
<line x1="840.6" y1="252.5" x2="839.6" y2="243.4" stroke="#2F4A5A" stroke-width="1.2" stroke-linecap="round"/>
<line x1="840.6" y1="252.5" x2="832.6" y2="247.9" stroke="#2F4A5A" stroke-width="1.2" stroke-linecap="round"/>
<text x="828.7" y="269.5" font-family="Arial" font-size="15" fill="#6B8290" font-weight="bold" text-anchor="middle">02,01</text>
<line x1="904.8" y1="163.6" x2="948.2" y2="156.3" stroke="#2F4A5A" stroke-width="1.3" stroke-linecap="round"/>
<line x1="948.2" y1="156.3" x2="939.2" y2="153.5" stroke="#2F4A5A" stroke-width="1.3" stroke-linecap="round"/>
<line x1="948.2" y1="156.3" x2="940.7" y2="161.9" stroke="#2F4A5A" stroke-width="1.3" stroke-linecap="round"/>
<text x="926.5" y="180.6" font-family="Arial" font-size="15" fill="#6B8290" font-weight="bold" text-anchor="middle">03,02</text>
<line x1="1065.6" y1="260.9" x2="1032.1" y2="289.4" stroke="#2F4A5A" stroke-width="1.3" stroke-linecap="round"/>
<line x1="1032.1" y1="289.4" x2="1041.3" y2="287.2" stroke="#2F4A5A" stroke-width="1.3" stroke-linecap="round"/>
<line x1="1032.1" y1="289.4" x2="1035.7" y2="280.7" stroke="#2F4A5A" stroke-width="1.3" stroke-linecap="round"/>
<text x="1048.8" y="306.4" font-family="Arial" font-size="15" fill="#6B8290" font-weight="bold" text-anchor="middle">01,02</text>
<line x1="563.9" y1="121.9" x2="555.2" y2="165.1" stroke="#2F4A5A" stroke-width="2.1" stroke-linecap="round"/>
<line x1="555.2" y1="165.1" x2="562.1" y2="156.4" stroke="#2F4A5A" stroke-width="2.1" stroke-linecap="round"/>
<line x1="555.2" y1="165.1" x2="552.3" y2="154.5" stroke="#2F4A5A" stroke-width="2.1" stroke-linecap="round"/>
<text x="559.6" y="182.1" font-family="Arial" font-size="15" fill="#6B8290" font-weight="bold" text-anchor="middle">02,10</text>
<line x1="819.9" y1="75.3" x2="853.7" y2="47.1" stroke="#2F4A5A" stroke-width="1.5" stroke-linecap="round"/>
<line x1="853.7" y1="47.1" x2="844.1" y2="49.3" stroke="#2F4A5A" stroke-width="1.5" stroke-linecap="round"/>
<line x1="853.7" y1="47.1" x2="849.8" y2="56.2" stroke="#2F4A5A" stroke-width="1.5" stroke-linecap="round"/>
<text x="836.8" y="92.3" font-family="Arial" font-size="15" fill="#6B8290" font-weight="bold" text-anchor="middle">04,04</text>
<line x1="1059.5" y1="76.4" x2="1103.4" y2="78.9" stroke="#2F4A5A" stroke-width="1.5" stroke-linecap="round"/>
<line x1="1103.4" y1="78.9" x2="1094.9" y2="73.9" stroke="#2F4A5A" stroke-width="1.5" stroke-linecap="round"/>
<line x1="1103.4" y1="78.9" x2="1094.4" y2="82.9" stroke="#2F4A5A" stroke-width="1.5" stroke-linecap="round"/>
<text x="1081.5" y="95.9" font-family="Arial" font-size="15" fill="#6B8290" font-weight="bold" text-anchor="middle">04,04</text>
</g>
<rect x="55.0" y="55.0" width="1130.0" height="1097.4" fill="none" stroke="#2F4A5A" stroke-width="3"/>
<line x1="55.0" y1="1067.1" x2="66.0" y2="1067.1" stroke="#2F4A5A" stroke-width="1.6" stroke-linecap="round"/>
<line x1="1174.0" y1="1067.1" x2="1185.0" y2="1067.1" stroke="#2F4A5A" stroke-width="1.6" stroke-linecap="round"/>
<rect x="68.0" y="1052.1" width="56.0" height="15.0" fill="#FFFFFF" opacity="0.82"/>
<text x="70.0" y="1063.1" font-family="Arial" font-size="12" fill="#6B8290">50° 40′ N</text>
<line x1="55.0" y1="762.2" x2="62.0" y2="762.2" stroke="#2F4A5A" stroke-width="1.6" stroke-linecap="round"/>
<line x1="1178.0" y1="762.2" x2="1185.0" y2="762.2" stroke="#2F4A5A" stroke-width="1.6" stroke-linecap="round"/>
<line x1="55.0" y1="457.4" x2="66.0" y2="457.4" stroke="#2F4A5A" stroke-width="1.6" stroke-linecap="round"/>
<line x1="1174.0" y1="457.4" x2="1185.0" y2="457.4" stroke="#2F4A5A" stroke-width="1.6" stroke-linecap="round"/>
<rect x="68.0" y="442.4" width="56.0" height="15.0" fill="#FFFFFF" opacity="0.82"/>
<text x="70.0" y="453.4" font-family="Arial" font-size="12" fill="#6B8290">51° 00′ N</text>
<line x1="55.0" y1="152.6" x2="62.0" y2="152.6" stroke="#2F4A5A" stroke-width="1.6" stroke-linecap="round"/>
<line x1="1178.0" y1="152.6" x2="1185.0" y2="152.6" stroke="#2F4A5A" stroke-width="1.6" stroke-linecap="round"/>
<line x1="55.0" y1="55.0" x2="55.0" y2="66.0" stroke="#2F4A5A" stroke-width="1.6" stroke-linecap="round"/>
<line x1="55.0" y1="1141.4" x2="55.0" y2="1152.4" stroke="#2F4A5A" stroke-width="1.6" stroke-linecap="round"/>
<rect x="57.0" y="69.0" width="64.0" height="15.0" fill="#FFFFFF" opacity="0.82"/>
<text x="59.0" y="81.0" font-family="Arial" font-size="12" fill="#6B8290">1° 00′ E</text>
<line x1="247.2" y1="55.0" x2="247.2" y2="62.0" stroke="#2F4A5A" stroke-width="1.6" stroke-linecap="round"/>
<line x1="247.2" y1="1145.4" x2="247.2" y2="1152.4" stroke="#2F4A5A" stroke-width="1.6" stroke-linecap="round"/>
<line x1="439.4" y1="55.0" x2="439.4" y2="66.0" stroke="#2F4A5A" stroke-width="1.6" stroke-linecap="round"/>
<line x1="439.4" y1="1141.4" x2="439.4" y2="1152.4" stroke="#2F4A5A" stroke-width="1.6" stroke-linecap="round"/>
<rect x="441.4" y="69.0" width="64.0" height="15.0" fill="#FFFFFF" opacity="0.82"/>
<text x="443.4" y="81.0" font-family="Arial" font-size="12" fill="#6B8290">1° 20′ E</text>
<line x1="631.5" y1="55.0" x2="631.5" y2="62.0" stroke="#2F4A5A" stroke-width="1.6" stroke-linecap="round"/>
<line x1="631.5" y1="1145.4" x2="631.5" y2="1152.4" stroke="#2F4A5A" stroke-width="1.6" stroke-linecap="round"/>
<line x1="823.7" y1="55.0" x2="823.7" y2="66.0" stroke="#2F4A5A" stroke-width="1.6" stroke-linecap="round"/>
<line x1="823.7" y1="1141.4" x2="823.7" y2="1152.4" stroke="#2F4A5A" stroke-width="1.6" stroke-linecap="round"/>
<rect x="825.7" y="69.0" width="64.0" height="15.0" fill="#FFFFFF" opacity="0.82"/>
<text x="827.7" y="81.0" font-family="Arial" font-size="12" fill="#6B8290">1° 40′ E</text>
<line x1="1015.9" y1="55.0" x2="1015.9" y2="62.0" stroke="#2F4A5A" stroke-width="1.6" stroke-linecap="round"/>
<line x1="1015.9" y1="1145.4" x2="1015.9" y2="1152.4" stroke="#2F4A5A" stroke-width="1.6" stroke-linecap="round"/>
</g>
<text x="55.0" y="1253.4" font-family="Arial" font-size="15" fill="#2F4A5A" font-weight="bold">HOW TO READ AN ARROW</text>
<line x1="71.0" y1="1291.4" x2="115.0" y2="1291.4" stroke="#2F4A5A" stroke-width="1.7" stroke-linecap="round"/>
<line x1="115.0" y1="1291.4" x2="105.9" y2="1286.8" stroke="#2F4A5A" stroke-width="1.7" stroke-linecap="round"/>
<line x1="115.0" y1="1291.4" x2="105.9" y2="1296.1" stroke="#2F4A5A" stroke-width="1.7" stroke-linecap="round"/>
<text x="93.0" y="1315.4" font-family="Arial" font-size="12" fill="#6B8290" text-anchor="middle">weak at springs</text>
<line x1="203.0" y1="1291.4" x2="247.0" y2="1291.4" stroke="#2F4A5A" stroke-width="3.1" stroke-linecap="round"/>
<line x1="247.0" y1="1291.4" x2="235.6" y2="1285.6" stroke="#2F4A5A" stroke-width="3.1" stroke-linecap="round"/>
<line x1="247.0" y1="1291.4" x2="235.6" y2="1297.3" stroke="#2F4A5A" stroke-width="3.1" stroke-linecap="round"/>
<text x="225.0" y="1315.4" font-family="Arial" font-size="12" fill="#6B8290" text-anchor="middle">moderate at springs</text>
<line x1="335.0" y1="1291.4" x2="379.0" y2="1291.4" stroke="#2F4A5A" stroke-width="4.8" stroke-linecap="round"/>
<line x1="379.0" y1="1291.4" x2="364.6" y2="1284.1" stroke="#2F4A5A" stroke-width="4.8" stroke-linecap="round"/>
<line x1="379.0" y1="1291.4" x2="364.6" y2="1298.8" stroke="#2F4A5A" stroke-width="4.8" stroke-linecap="round"/>
<text x="357.0" y="1315.4" font-family="Arial" font-size="12" fill="#6B8290" text-anchor="middle">strong at springs</text>
<text x="491.0" y="1285.4" font-family="Arial" font-size="20" fill="#6B8290" font-weight="bold">08,15</text>
<text x="571.0" y="1281.4" font-family="Arial" font-size="13" fill="#6B8290">0.8 knots at neaps (coefficient 45)</text>
<text x="571.0" y="1299.4" font-family="Arial" font-size="13" fill="#6B8290">1.5 knots at springs (coefficient 95)</text>
<text x="571.0" y="1317.4" font-family="Arial" font-size="13" fill="#6B8290">the arrow points WHERE THE WATER GOES, in degrees true</text>
<line x1="55.0" y1="1327.4" x2="1185.0" y2="1327.4" stroke="#2F4A5A" stroke-width="1.0" opacity="0.35" stroke-linecap="round"/>
<text x="55.0" y="1345.4" font-family="Arial" font-size="12" fill="#6B8290" font-weight="bold">«HOW TO USE IT»</text>
<text x="55.0" y="1362.4" font-family="Arial" font-size="12" fill="#6B8290">1 · on the almanac's tide pages, the day's HW DOVER, in UTC. 2 · the difference between the time you want and that high water, rounded to the hour: that is the page.</text>
<text x="55.0" y="1379.4" font-family="Arial" font-size="12" fill="#6B8290">3 · the THREE ARROWS around the place; each gives a direction and, between its two figures, the day's knots. 4 · share them in inverse proportion to distance:</text>
<text x="55.0" y="1396.4" font-family="Arial" font-size="12" fill="#6B8290">   the nearest weighs most. Drawn all three from the same point and the difference split, that is the stream. The checker reads this page the same way.</text>
<text x="55.0" y="1413.4" font-family="Arial" font-size="12" fill="#6B8290"></text>
<text x="55.0" y="1430.4" font-family="Arial" font-size="12" fill="#6B8290" font-weight="bold">«HOW TO INTERPOLATE BETWEEN NEAPS AND SPRINGS»</text>
<text x="55.0" y="1447.4" font-family="Arial" font-size="12" fill="#6B8290">With the COEFFICIENT of the tide pages whose Brest time, printed under it, is nearest yours:   knots = neaps + (springs − neaps) × (coefficient − 45) / 50.</text>
<text x="55.0" y="1464.4" font-family="Arial" font-size="12" fill="#6B8290">Example: arrow 08,15 and coefficient 70  →  0.8 + (1.5 − 0.8) × 25/50 = 1.15, so 1.2 knots. Coefficient 112  →  0.8 + 0.7 × 1.34 = 1.7 knots.</text>
<text x="55.0" y="1481.4" font-family="Arial" font-size="12" fill="#6B8290">Without a coefficient, the day's RANGE at Dover will do: mean neap range 3.12 m, mean spring range 6.05 m; place the day's range between the two in the same proportion.</text>
<text x="55.0" y="1498.4" font-family="Arial" font-size="12" fill="#6B8290"></text>
<text x="55.0" y="1515.4" font-family="Arial" font-size="12" fill="#6B8290" font-weight="bold">«WHAT THIS PAGE DOES NOT SAY»</text>
<text x="55.0" y="1532.4" font-family="Arial" font-size="12" fill="#6B8290">Between two arrows the stream is not the mean of the two: measured on THIS sheet, the difference exceeds 0.3 knots in 5 % of cases and reaches 1.8 at worst.</text>
<text x="55.0" y="1549.4" font-family="Arial" font-size="12" fill="#6B8290">The arrows are samples, not a field. Where the Shom grid does not reach there is no arrow, and that includes harbour mouths and, here, the harbour mouths of Dover and Boulogne.</text>
<text x="55.0" y="1566.4" font-family="Arial" font-size="12" fill="#6B8290">Each arrow IS on a real node of the Shom grid and says what the atlas says there: no cell average, no maximum moved from its place. In a race the node falls on the axis.</text>
<text x="55.0" y="1583.4" font-family="Arial" font-size="12" fill="#6B8290">The thirteen pages run on HW DOVER; the Shom grids run on their own port's, and the offset —measured over the high waters of 2024— is already applied:</text>
<text x="55.0" y="1600.4" font-family="Arial" font-size="12" fill="#6B8290">   Boulogne HW +0 min, Calais HW +22 min. It is the only step between this sheet and the data.</text>
<text x="55.0" y="1617.4" font-family="Arial" font-size="12" fill="#6B8290"></text>
<text x="55.0" y="1634.4" font-family="Arial" font-size="12" fill="#6B8290">Shom, 2026. Atlas de courants de maree 2D au format netcdf, https://dx.doi.org/10.17183/ATLASCOURANTS2D_NETCDF · Licence Ouverte 2.0.</text>
<text x="55.0" y="1651.4" font-family="Arial" font-size="12" fill="#6B8290" font-weight="bold">«A n'utiliser qu'en complement des cartes et ouvrages nautiques officiels» — to be used only alongside the official charts and nautical publications.</text>
<text x="55.0" y="1668.4" font-family="Arial" font-size="12" fill="#6B8290">Coastline from OpenStreetMap, ODbL. High waters worked out from the course's own harmonic constants.</text>
</svg>